<svg width="2674" height="874" viewBox="0 0 2674 874" fill="none" xmlns="http://www.w3.org/2000/svg">
<g clip-path="url(#clip0_3005_1779)">
<path d="M332.622 22.3087C301.506 22.3087 147.376 21.8264 60.3013 22.0675C27.015 22.0675 0 49.0786 0 82.36V222.239V474.744V674.673L332.622 376.587V199.448V22.3087Z" fill="#FBF6EF"/>
<path d="M1002.69 22.1875L116.502 852.053H76.9444C34.4923 852.053 -0.241203 817.566 -0.241203 774.879V743.286L769.927 22.1875H1002.69Z" fill="#FBF6EF"/>
<path d="M1116.78 806.472L986.77 659.359L957.343 625.836L820.58 470.764C820.58 470.764 810.449 457.499 792.118 442.788C779.816 432.9 764.138 422.047 745.324 414.571C737.123 411.195 728.439 408.301 719.274 406.371C704.56 403.236 688.641 402.271 671.756 404.683C649.083 407.818 628.339 419.394 611.696 435.07L166.432 852.053H355.295L561.043 659.359L623.998 730.745L731.093 852.053H1096.28C1119.92 852.053 1132.46 824.319 1116.78 806.472Z" fill="#FBF6EF"/>
<path d="M1247.03 7.47656H1464.12C1492.34 7.47656 1515.25 30.3877 1515.25 58.6046V866.524H1330.73C1284.66 866.524 1247.27 829.143 1247.27 783.079V7.47656H1247.03Z" fill="#FBF6EF"/>
<path d="M2394.2 191.007L2384.07 166.166L2315.81 0H2023.71C1981.26 0 1943.15 25.564 1926.99 64.6336L1889.36 155.072L1591.47 873.518H1791.19L1828.09 873.759C1850.04 873.759 1869.82 860.494 1878.26 840.236L2132.01 228.147L2384.55 845.783L2396.13 874H2406.5L2633.96 873.518H2671.83C2671.83 873.518 2673.28 873.518 2674 873.276L2394.2 191.007Z" fill="#FBF6EF"/>
</g>
<defs>
<clipPath id="clip0_3005_1779">
<rect width="2674" height="874" fill="white"/>
</clipPath>
</defs>
</svg>
