<svg width="49" height="54" viewBox="0 0 49 54" fill="none" xmlns="http://www.w3.org/2000/svg">
<mask id="path-1-inside-1_3361_5019" fill="white">
<path d="M40.404 53.8721C38.1594 53.8721 36.2514 53.0864 34.6801 51.5152C33.1089 49.9439 32.3232 48.0359 32.3232 45.7913C32.3232 45.5219 32.3906 44.8934 32.5253 43.9057L13.6027 32.862C12.8844 33.5354 12.0539 34.0633 11.1111 34.4458C10.1683 34.8283 9.15825 35.0186 8.08081 35.0168C5.83614 35.0168 3.92817 34.2312 2.3569 32.6599C0.785634 31.0887 0 29.1807 0 26.936C0 24.6914 0.785634 22.7834 2.3569 21.2121C3.92817 19.6409 5.83614 18.8552 8.08081 18.8552C9.15825 18.8552 10.1683 19.0465 11.1111 19.429C12.0539 19.8115 12.8844 20.3385 13.6027 21.0101L32.5253 9.96633C32.4355 9.65208 32.3798 9.3495 32.3582 9.05859C32.3367 8.76768 32.325 8.44175 32.3232 8.08081C32.3232 5.83614 33.1089 3.92817 34.6801 2.3569C36.2514 0.785634 38.1594 0 40.404 0C42.6487 0 44.5567 0.785634 46.1279 2.3569C47.6992 3.92817 48.4848 5.83614 48.4848 8.08081C48.4848 10.3255 47.6992 12.2334 46.1279 13.8047C44.5567 15.376 42.6487 16.1616 40.404 16.1616C39.3266 16.1616 38.3165 15.9704 37.3737 15.5879C36.431 15.2054 35.6004 14.6783 34.8822 14.0067L15.9596 25.0505C16.0494 25.3648 16.1059 25.6682 16.1293 25.9609C16.1526 26.2536 16.1634 26.5787 16.1616 26.936C16.1598 27.2934 16.149 27.6193 16.1293 27.9138C16.1095 28.2083 16.053 28.5109 15.9596 28.8216L34.8822 39.8653C35.6004 39.1919 36.431 38.6649 37.3737 38.2842C38.3165 37.9035 39.3266 37.7122 40.404 37.7104C42.6487 37.7104 44.5567 38.4961 46.1279 40.0673C47.6992 41.6386 48.4848 43.5466 48.4848 45.7913C48.4848 48.0359 47.6992 49.9439 46.1279 51.5152C44.5567 53.0864 42.6487 53.8721 40.404 53.8721ZM40.404 48.4849C41.1672 48.4849 41.8074 48.2272 42.3246 47.7118C42.8417 47.1964 43.0994 46.5562 43.0976 45.7913C43.0958 45.0263 42.8373 44.387 42.3219 43.8734C41.8065 43.3598 41.1672 43.1012 40.404 43.0976C39.6409 43.0941 39.0016 43.3526 38.4862 43.8734C37.9708 44.3942 37.7122 45.0335 37.7104 45.7913C37.7086 46.5491 37.9672 47.1892 38.4862 47.7118C39.0052 48.2343 39.6444 48.492 40.404 48.4849ZM8.08081 29.6296C8.844 29.6296 9.48417 29.371 10.0013 28.8539C10.5185 28.3367 10.7762 27.6974 10.7744 26.936C10.7726 26.1746 10.514 25.5354 9.99865 25.0182C9.48328 24.501 8.844 24.2424 8.08081 24.2424C7.31762 24.2424 6.67834 24.501 6.16296 25.0182C5.64759 25.5354 5.389 26.1746 5.38721 26.936C5.38541 27.6974 5.644 28.3376 6.16296 28.8566C6.68193 29.3755 7.32121 29.6332 8.08081 29.6296ZM42.3246 9.99865C42.84 9.48507 43.0976 8.84579 43.0976 8.08081C43.0976 7.31583 42.8391 6.67654 42.3219 6.16296C41.8047 5.64938 41.1654 5.3908 40.404 5.38721C39.6426 5.38361 39.0034 5.6422 38.4862 6.16296C37.969 6.68373 37.7104 7.32301 37.7104 8.08081C37.7104 8.83861 37.969 9.47879 38.4862 10.0013C39.0034 10.5239 39.6426 10.7816 40.404 10.7744C41.1654 10.7672 41.8056 10.5086 42.3246 9.99865Z"/>
</mask>
<path d="M40.404 53.8721C38.1594 53.8721 36.2514 53.0864 34.6801 51.5152C33.1089 49.9439 32.3232 48.0359 32.3232 45.7913C32.3232 45.5219 32.3906 44.8934 32.5253 43.9057L13.6027 32.862C12.8844 33.5354 12.0539 34.0633 11.1111 34.4458C10.1683 34.8283 9.15825 35.0186 8.08081 35.0168C5.83614 35.0168 3.92817 34.2312 2.3569 32.6599C0.785634 31.0887 0 29.1807 0 26.936C0 24.6914 0.785634 22.7834 2.3569 21.2121C3.92817 19.6409 5.83614 18.8552 8.08081 18.8552C9.15825 18.8552 10.1683 19.0465 11.1111 19.429C12.0539 19.8115 12.8844 20.3385 13.6027 21.0101L32.5253 9.96633C32.4355 9.65208 32.3798 9.3495 32.3582 9.05859C32.3367 8.76768 32.325 8.44175 32.3232 8.08081C32.3232 5.83614 33.1089 3.92817 34.6801 2.3569C36.2514 0.785634 38.1594 0 40.404 0C42.6487 0 44.5567 0.785634 46.1279 2.3569C47.6992 3.92817 48.4848 5.83614 48.4848 8.08081C48.4848 10.3255 47.6992 12.2334 46.1279 13.8047C44.5567 15.376 42.6487 16.1616 40.404 16.1616C39.3266 16.1616 38.3165 15.9704 37.3737 15.5879C36.431 15.2054 35.6004 14.6783 34.8822 14.0067L15.9596 25.0505C16.0494 25.3648 16.1059 25.6682 16.1293 25.9609C16.1526 26.2536 16.1634 26.5787 16.1616 26.936C16.1598 27.2934 16.149 27.6193 16.1293 27.9138C16.1095 28.2083 16.053 28.5109 15.9596 28.8216L34.8822 39.8653C35.6004 39.1919 36.431 38.6649 37.3737 38.2842C38.3165 37.9035 39.3266 37.7122 40.404 37.7104C42.6487 37.7104 44.5567 38.4961 46.1279 40.0673C47.6992 41.6386 48.4848 43.5466 48.4848 45.7913C48.4848 48.0359 47.6992 49.9439 46.1279 51.5152C44.5567 53.0864 42.6487 53.8721 40.404 53.8721ZM40.404 48.4849C41.1672 48.4849 41.8074 48.2272 42.3246 47.7118C42.8417 47.1964 43.0994 46.5562 43.0976 45.7913C43.0958 45.0263 42.8373 44.387 42.3219 43.8734C41.8065 43.3598 41.1672 43.1012 40.404 43.0976C39.6409 43.0941 39.0016 43.3526 38.4862 43.8734C37.9708 44.3942 37.7122 45.0335 37.7104 45.7913C37.7086 46.5491 37.9672 47.1892 38.4862 47.7118C39.0052 48.2343 39.6444 48.492 40.404 48.4849ZM8.08081 29.6296C8.844 29.6296 9.48417 29.371 10.0013 28.8539C10.5185 28.3367 10.7762 27.6974 10.7744 26.936C10.7726 26.1746 10.514 25.5354 9.99865 25.0182C9.48328 24.501 8.844 24.2424 8.08081 24.2424C7.31762 24.2424 6.67834 24.501 6.16296 25.0182C5.64759 25.5354 5.389 26.1746 5.38721 26.936C5.38541 27.6974 5.644 28.3376 6.16296 28.8566C6.68193 29.3755 7.32121 29.6332 8.08081 29.6296ZM42.3246 9.99865C42.84 9.48507 43.0976 8.84579 43.0976 8.08081C43.0976 7.31583 42.8391 6.67654 42.3219 6.16296C41.8047 5.64938 41.1654 5.3908 40.404 5.38721C39.6426 5.38361 39.0034 5.6422 38.4862 6.16296C37.969 6.68373 37.7104 7.32301 37.7104 8.08081C37.7104 8.83861 37.969 9.47879 38.4862 10.0013C39.0034 10.5239 39.6426 10.7816 40.404 10.7744C41.1654 10.7672 41.8056 10.5086 42.3246 9.99865Z" fill="#FBF6EF"/>
<path d="M32.5252 43.9057L75.131 49.7156L79.0127 21.2495L54.1999 6.76803L32.5252 43.9057ZM13.6027 32.862L35.2774 -4.27574L7.58493 -20.4379L-15.8068 1.49186L13.6027 32.862ZM8.08081 35.0168L8.15247 -7.9831L8.11664 -7.98316H8.08081V35.0168ZM13.6027 21.0101L-15.765 52.4194L7.62341 74.2875L35.2774 58.1478L13.6027 21.0101ZM32.5252 9.96633L54.1999 47.104L83.0465 30.2683L73.8708 -1.84668L32.5252 9.96633ZM32.3232 8.08081H-10.6768V8.18777L-10.6762 8.29474L32.3232 8.08081ZM34.8822 14.0067L64.2498 -17.4025L40.8614 -39.2706L13.2075 -23.131L34.8822 14.0067ZM15.9596 25.0505L-5.71508 -12.0872L-34.5616 4.74853L-25.3859 36.8635L15.9596 25.0505ZM15.9596 28.8216L-25.2204 16.4438L-34.9713 48.8844L-5.71508 65.9593L15.9596 28.8216ZM34.8822 39.8653L13.2075 77.003L40.8999 93.1652L64.2916 71.2354L34.8822 39.8653ZM40.404 37.7104V-5.28956H40.3682L40.3324 -5.2895L40.404 37.7104ZM40.404 48.4849V5.48485H40.2007L39.9974 5.48678L40.404 48.4849ZM8.08081 29.6296V-13.3704H7.97915L7.8775 -13.3699L8.08081 29.6296ZM42.3246 9.99865L72.4637 40.6684L72.5707 40.5632L72.6771 40.4573L42.3246 9.99865ZM40.404 53.8721V10.8721C44.4015 10.8721 48.9819 11.5947 53.6618 13.5217C58.3504 15.4523 62.1689 18.1928 65.0857 21.1096L34.6801 51.5152L4.27454 81.9207C14.0014 91.6477 26.8852 96.8721 40.404 96.8721V53.8721ZM34.6801 51.5152L65.0857 21.1096C68.0025 24.0264 70.743 27.8449 72.6736 32.5335C74.6006 37.2134 75.3232 41.7938 75.3232 45.7913H32.3232H-10.6768C-10.6768 59.3101 -5.45236 72.1938 4.27454 81.9207L34.6801 51.5152ZM32.3232 45.7913H75.3232C75.3232 46.6078 75.2989 47.2672 75.2792 47.6868C75.2586 48.1279 75.2342 48.4882 75.2154 48.7378C75.1792 49.2215 75.1431 49.5672 75.129 49.6987C75.1012 49.958 75.0916 50.0041 75.131 49.7156L32.5252 43.9057L-10.0804 38.0959C-10.0883 38.1536 -10.6768 41.9826 -10.6768 45.7913H32.3232ZM32.5252 43.9057L54.1999 6.76803L35.2774 -4.27574L13.6027 32.862L-8.07198 69.9997L10.8506 81.0434L32.5252 43.9057ZM13.6027 32.862L-15.8068 1.49186C-12.5404 -1.57038 -8.84391 -3.8624 -5.05478 -5.3997L11.1111 34.4458L27.277 74.2913C32.9517 71.989 38.3092 68.6411 43.0122 64.2321L13.6027 32.862ZM11.1111 34.4458L-5.05478 -5.3997C-0.540386 -7.23126 3.99719 -7.99003 8.15247 -7.9831L8.08081 35.0168L8.00914 78.0168C14.3193 78.0273 20.8771 76.8878 27.277 74.2913L11.1111 34.4458ZM8.08081 35.0168V-7.98316C12.0783 -7.98316 16.6587 -7.26057 21.3386 -5.33354C26.0271 -3.40295 29.8457 -0.662436 32.7625 2.25435L2.3569 32.6599L-28.0487 63.0655C-18.3218 72.7924 -5.43802 78.0168 8.08081 78.0168V35.0168ZM2.3569 32.6599L32.7625 2.25435C35.6793 5.17113 38.4198 8.98969 40.3504 13.6783C42.2774 18.3582 43 22.9385 43 26.936H0H-43C-43 40.4549 -37.7756 53.3386 -28.0487 63.0655L2.3569 32.6599ZM0 26.936H43C43 30.9335 42.2774 35.5139 40.3504 40.1938C38.4198 44.8824 35.6793 48.7009 32.7625 51.6177L2.3569 21.2121L-28.0487 -9.19347C-37.7756 0.533437 -43 13.4172 -43 26.936H0ZM2.3569 21.2121L32.7625 51.6177C29.8457 54.5345 26.0271 57.275 21.3386 59.2056C16.6587 61.1326 12.0783 61.8552 8.08081 61.8552V18.8552V-24.1448C-5.43802 -24.1448 -18.3218 -18.9204 -28.0487 -9.19347L2.3569 21.2121ZM8.08081 18.8552V61.8552C3.94806 61.8552 -0.564136 61.0964 -5.05478 59.2745L11.1111 19.429L27.277 -20.4165C20.9008 -23.0034 14.3684 -24.1448 8.08081 -24.1448V18.8552ZM11.1111 19.429L-5.05478 59.2745C-8.82033 57.7467 -12.5033 55.469 -15.765 52.4194L13.6027 21.0101L42.9703 -10.3991C38.2721 -14.792 32.9281 -18.1238 27.277 -20.4165L11.1111 19.429ZM13.6027 21.0101L35.2774 58.1478L54.1999 47.104L32.5252 9.96633L10.8506 -27.1714L-8.07198 -16.1276L13.6027 21.0101ZM32.5252 9.96633L73.8708 -1.84668C74.4916 0.326101 75.0216 2.92409 75.2408 5.8821L32.3582 9.05859L-10.5243 12.2351C-10.2621 15.7749 -9.62065 18.9781 -8.82028 21.7793L32.5252 9.96633ZM32.3582 9.05859L75.2408 5.8821C75.3069 6.77544 75.3207 7.46046 75.3227 7.86688L32.3232 8.08081L-10.6762 8.29474C-10.6706 9.42305 -10.6335 10.7599 -10.5243 12.2351L32.3582 9.05859ZM32.3232 8.08081H75.3232C75.3232 12.0783 74.6006 16.6586 72.6736 21.3386C70.743 26.0271 68.0025 29.8457 65.0857 32.7625L34.6801 2.3569L4.27454 -28.0487C-5.45236 -18.3218 -10.6768 -5.43801 -10.6768 8.08081H32.3232ZM34.6801 2.3569L65.0857 32.7625C62.1689 35.6793 58.3504 38.4198 53.6618 40.3504C48.9819 42.2774 44.4015 43 40.404 43V0V-43C26.8852 -43 14.0014 -37.7756 4.27454 -28.0487L34.6801 2.3569ZM40.404 0V43C36.4065 43 31.8262 42.2774 27.1463 40.3504C22.4577 38.4198 18.6391 35.6793 15.7223 32.7625L46.1279 2.3569L76.5335 -28.0487C66.8066 -37.7756 53.9229 -43 40.404 -43V0ZM46.1279 2.3569L15.7223 32.7625C12.8056 29.8457 10.0651 26.0271 8.13446 21.3386C6.20744 16.6586 5.48485 12.0783 5.48485 8.08081H48.4848H91.4848C91.4848 -5.43801 86.2604 -18.3218 76.5335 -28.0487L46.1279 2.3569ZM48.4848 8.08081H5.48485C5.48485 4.08332 6.20744 -0.49703 8.13446 -5.17695C10.0651 -9.86553 12.8056 -13.6841 15.7223 -16.6009L46.1279 13.8047L76.5335 44.2103C86.2604 34.4834 91.4848 21.5996 91.4848 8.08081H48.4848ZM46.1279 13.8047L15.7223 -16.6009C18.6391 -19.5177 22.4577 -22.2582 27.1463 -24.1888C31.8262 -26.1158 36.4065 -26.8384 40.404 -26.8384V16.1616V59.1616C53.9229 59.1616 66.8066 53.9372 76.5335 44.2103L46.1279 13.8047ZM40.404 16.1616V-26.8384C44.5367 -26.8384 49.049 -26.0796 53.5396 -24.2576L37.3737 15.5879L21.2078 55.4334C27.584 58.0203 34.1164 59.1616 40.404 59.1616V16.1616ZM37.3737 15.5879L53.5396 -24.2576C57.3052 -22.7299 60.9882 -20.4521 64.2498 -17.4025L34.8822 14.0067L5.5145 45.416C10.2127 49.8088 15.5567 53.1406 21.2078 55.4334L37.3737 15.5879ZM34.8822 14.0067L13.2075 -23.131L-5.71508 -12.0872L15.9596 25.0505L37.6343 62.1882L56.5568 51.1444L34.8822 14.0067ZM15.9596 25.0505L-25.3859 36.8635C-25.9926 34.7402 -26.5075 32.2265 -26.7346 29.3795L16.1293 25.9609L58.9932 22.5424C58.7194 19.11 58.0914 15.9893 57.3051 13.2375L15.9596 25.0505ZM16.1293 25.9609L-26.7346 29.3795C-26.8257 28.2377 -26.8409 27.3261 -26.8378 26.72L16.1616 26.936L59.1611 27.1521C59.1677 25.8312 59.1309 24.2696 58.9932 22.5424L16.1293 25.9609ZM16.1616 26.936L-26.8378 26.72C-26.8361 26.3668 -26.8248 25.7886 -26.7743 25.0361L16.1293 27.9138L59.0329 30.7915C59.1229 29.45 59.1557 28.22 59.1611 27.1521L16.1616 26.936ZM16.1293 27.9138L-26.7743 25.0361C-26.5579 21.8097 -25.9658 18.9236 -25.2204 16.4438L15.9596 28.8216L57.1396 41.1993C58.0717 38.0982 58.777 34.6069 59.0329 30.7915L16.1293 27.9138ZM15.9596 28.8216L-5.71508 65.9593L13.2075 77.003L34.8822 39.8653L56.5568 2.72763L37.6343 -8.31615L15.9596 28.8216ZM34.8822 39.8653L64.2916 71.2354C61.0099 74.312 57.2912 76.6148 53.4744 78.1561L37.3737 38.2842L21.2731 -1.58773C15.5708 0.714923 10.191 4.07185 5.47268 8.49522L34.8822 39.8653ZM37.3737 38.2842L53.4744 78.1561C49.0237 79.9533 44.5597 80.7036 40.4757 80.7104L40.404 37.7104L40.3324 -5.2895C34.0934 -5.2791 27.6093 -4.14634 21.2731 -1.58773L37.3737 38.2842ZM40.404 37.7104V80.7104C36.4065 80.7104 31.8262 79.9879 27.1463 78.0608C22.4577 76.1302 18.6391 73.3897 15.7223 70.4729L46.1279 40.0673L76.5335 9.66176C66.8066 -0.0651461 53.9229 -5.28956 40.404 -5.28956V37.7104ZM46.1279 40.0673L15.7223 70.4729C12.8056 67.5562 10.0651 63.7376 8.13446 59.049C6.20744 54.3691 5.48485 49.7887 5.48485 45.7913H48.4848H91.4848C91.4848 32.2724 86.2604 19.3887 76.5335 9.66176L46.1279 40.0673ZM48.4848 45.7913H5.48485C5.48485 41.7938 6.20744 37.2134 8.13446 32.5335C10.0651 27.8449 12.8056 24.0264 15.7223 21.1096L46.1279 51.5152L76.5335 81.9207C86.2604 72.1938 91.4848 59.3101 91.4848 45.7913H48.4848ZM46.1279 51.5152L15.7223 21.1096C18.6391 18.1928 22.4577 15.4523 27.1463 13.5217C31.8262 11.5947 36.4065 10.8721 40.404 10.8721V53.8721V96.8721C53.9229 96.8721 66.8066 91.6477 76.5335 81.9207L46.1279 51.5152ZM40.404 48.4849V91.4849C51.9719 91.4849 63.7029 87.1134 72.6772 78.1702L42.3246 47.7118L11.9719 17.2534C15.5573 13.6804 20.064 10.5498 25.3999 8.40194C30.6983 6.26922 35.8669 5.48485 40.404 5.48485V48.4849ZM42.3246 47.7118L72.6772 78.1702C81.7379 69.141 86.1248 57.3102 86.0975 45.6903L43.0976 45.7913L0.0977595 45.8922C0.0870733 41.3399 0.864585 36.1334 3.01607 30.7885C5.18387 25.403 8.35303 20.8597 11.9719 17.2534L42.3246 47.7118ZM43.0976 45.7913L86.0975 45.6903C86.0705 34.1815 81.7116 22.4205 72.6744 13.4148L42.3219 43.8734L11.9694 74.332C8.35379 70.729 5.20121 66.2053 3.03994 60.8622C0.895928 55.5617 0.108345 50.4018 0.0977595 45.8922L43.0976 45.7913ZM42.3219 43.8734L72.6744 13.4148C63.7237 4.4953 52.0628 0.152037 40.6064 0.0981247L40.404 43.0976L40.2017 86.0972C35.7077 86.076 30.5856 85.2819 25.3318 83.1567C20.0382 81.0155 15.5513 77.9015 11.9694 74.332L42.3219 43.8734ZM40.404 43.0976L40.6064 0.0981247C28.8298 0.0427053 16.9353 4.51976 7.92293 13.6263L38.4862 43.8734L69.0495 74.1205C65.458 77.7495 60.9063 80.9549 55.4763 83.1513C50.0827 85.333 44.8165 86.1189 40.2017 86.0972L40.404 43.0976ZM38.4862 43.8734L7.92293 13.6263C-0.833768 22.4745 -5.26191 34.0717 -5.28944 45.6894L37.7104 45.7913L80.7103 45.8931C80.6995 50.4618 79.8931 55.6143 77.7681 60.8676C75.6319 66.1489 72.5421 70.5913 69.0495 74.1205L38.4862 43.8734ZM37.7104 45.7913L-5.28944 45.6894C-5.31735 57.4666 -0.824119 69.1514 7.97593 78.0124L38.4862 47.7118L68.9965 17.4112C72.4982 20.9372 75.6183 25.4 77.7733 30.735C79.9184 36.0457 80.7213 41.2622 80.7103 45.8931L37.7104 45.7913ZM38.4862 47.7118L7.97593 78.0124C16.9507 87.0492 28.8641 91.5959 40.8106 91.4829L40.404 48.4849L39.9974 5.48678C44.6849 5.44245 50.0033 6.22731 55.4309 8.41513C60.8865 10.6142 65.43 13.8201 68.9965 17.4112L38.4862 47.7118ZM8.08081 29.6296V72.6296C19.6957 72.6296 31.4432 68.2232 40.4069 59.2595L10.0013 28.8539L-20.4042 -1.55171C-16.8257 -5.13022 -12.3188 -8.27459 -6.97137 -10.4346C-1.66029 -12.5799 3.52534 -13.3704 8.08081 -13.3704V29.6296ZM10.0013 28.8539L40.4069 59.2595C49.376 50.2904 53.8018 38.5117 53.7743 26.8346L10.7744 26.936L-32.2255 27.0374C-32.2363 22.4561 -31.4495 17.2447 -29.2994 11.9105C-27.1352 6.54163 -23.9823 2.02634 -20.4042 -1.55171L10.0013 28.8539ZM10.7744 26.936L53.7743 26.8346C53.747 15.2709 49.3533 3.59274 40.4571 -5.33448L9.99865 25.0182L-20.4598 55.3708C-24.0135 51.8048 -27.1345 47.3219 -29.2833 42.0097C-31.4178 36.7327 -32.2148 31.5765 -32.2255 27.0374L10.7744 26.936ZM9.99865 25.0182L40.4571 -5.33448C31.475 -14.3479 19.6972 -18.7576 8.08081 -18.7576V24.2424V67.2424C3.52626 67.2424 -1.66781 66.4522 -6.99148 64.2988C-12.3533 62.13 -16.8728 58.9703 -20.4598 55.3708L9.99865 25.0182ZM8.08081 24.2424V-18.7576C-3.53557 -18.7576 -15.3134 -14.3479 -24.2955 -5.33448L6.16296 25.0182L36.6214 55.3708C33.0344 58.9703 28.5149 62.13 23.1531 64.2988C17.8294 66.4522 12.6354 67.2424 8.08081 67.2424V24.2424ZM6.16296 25.0182L-24.2955 -5.33448C-33.1917 3.59274 -37.5854 15.2709 -37.6127 26.8346L5.38721 26.936L48.3871 27.0374C48.3764 31.5765 47.5794 36.7327 45.4449 42.0097C43.2961 47.3219 40.1751 51.8048 36.6214 55.3708L6.16296 25.0182ZM5.38721 26.936L-37.6127 26.8346C-37.6403 38.5572 -33.1825 50.3223 -24.2426 59.2622L6.16296 28.8566L36.5686 -1.54902C40.1312 2.01359 43.2826 6.51652 45.4501 11.8825C47.6047 17.2168 48.3979 22.4367 48.3871 27.0374L5.38721 26.936ZM6.16296 28.8566L-24.2426 59.2622C-15.2976 68.2072 -3.50103 72.6849 8.28411 72.6292L8.08081 29.6296L7.8775 -13.3699C12.5043 -13.3918 17.7502 -12.6023 23.1076 -10.4428C28.4951 -8.27117 33.0064 -5.11114 36.5686 -1.54902L6.16296 28.8566ZM42.3246 9.99865L72.6771 40.4573C81.7407 31.4252 86.0976 19.6222 86.0976 8.08081H43.0976H0.097641C0.097641 3.55948 0.877046 -1.61944 3.02253 -6.94202C5.18539 -12.3077 8.34698 -16.8475 11.9721 -20.46L42.3246 9.99865ZM43.0976 8.08081H86.0976C86.0976 -3.50773 81.7057 -15.3271 72.6214 -24.3484L42.3219 6.16296L12.0224 36.6743C8.39184 33.0689 5.21637 28.529 3.04128 23.1517C0.883152 17.8164 0.097641 12.6205 0.097641 8.08081H43.0976ZM42.3219 6.16296L72.6214 -24.3484C63.71 -33.1978 52.0904 -37.5581 40.6069 -37.6123L40.404 5.38721L40.2012 48.3867C35.6926 48.3655 30.5725 47.5667 25.3304 45.4463C20.0522 43.3113 15.5858 40.2129 12.0224 36.6743L42.3219 6.16296ZM40.404 5.38721L40.6069 -37.6123C28.8022 -37.668 16.9487 -33.1727 7.97557 -24.1372L38.4862 6.16296L68.9968 36.4632C65.4236 40.0612 60.8921 43.2508 55.4777 45.4409C50.0958 47.6178 44.8313 48.4086 40.2012 48.3867L40.404 5.38721ZM38.4862 6.16296L7.97557 -24.1372C-0.827218 -15.2733 -5.28956 -3.61757 -5.28956 8.08081H37.7104H80.7104C80.7104 12.6802 79.9059 17.8689 77.7668 23.1571C75.6168 28.4724 72.5043 32.9313 68.9968 36.4632L38.4862 6.16296ZM37.7104 8.08081H-5.28956C-5.28956 19.7772 -0.830801 31.4035 7.92347 40.249L38.4862 10.0013L69.0489 -20.2463C72.536 -16.7229 75.6334 -12.2765 77.7747 -6.9754C79.9056 -1.69972 80.7104 3.48061 80.7104 8.08081H37.7104ZM38.4862 10.0013L7.92347 40.249C16.9375 49.3569 28.8915 53.8849 40.8097 53.7725L40.404 10.7744L39.9984 -32.2237C44.6703 -32.2677 49.9902 -31.4879 55.4295 -29.2953C60.9008 -27.0899 65.4643 -23.8682 69.0489 -20.2463L38.4862 10.0013ZM40.404 10.7744L40.8097 53.7725C52.1315 53.6657 63.6039 49.375 72.4637 40.6684L42.3246 9.99865L12.1854 -20.6711C15.7341 -24.1584 20.1546 -27.1964 25.3505 -29.2952C30.5105 -31.3794 35.5501 -32.1817 39.9984 -32.2237L40.404 10.7744Z" fill="#FBF6EF" mask="url(#path-1-inside-1_3361_5019)"/>
</svg>
