<svg width="46" height="37" viewBox="0 0 46 37" fill="none" xmlns="http://www.w3.org/2000/svg">
<path d="M19.4207 19.0959C18.511 19.9642 18 21.1419 18 22.3699C18 22.9779 18.1255 23.58 18.3692 24.1418C18.613 24.7035 18.9703 25.2139 19.4207 25.6439C19.8711 26.0738 20.4058 26.4149 20.9943 26.6476C21.5828 26.8802 22.2136 27 22.8506 27C24.137 27 25.3708 26.5122 26.2805 25.6439L40 6L19.4207 19.0959Z" fill="#DDD8D1"/>
<path d="M40.1612 13.9028C39.9344 14.2395 39.8 14.6304 39.7717 15.036C39.7434 15.4415 39.8223 15.8474 40.0002 16.2125C40.57 17.5509 40.9717 18.9552 41.1963 20.3931C41.7883 24.1121 41.2346 27.9239 39.6092 31.3181C39.4118 31.6904 39.1167 32.0013 38.7558 32.2171C38.395 32.4329 37.9822 32.5453 37.5622 32.5422H8.46635C8.04399 32.5431 7.62955 32.4272 7.26846 32.2072C6.90737 31.9872 6.61358 31.6716 6.41929 31.295C4.94697 28.2957 4.31276 24.9514 4.58426 21.6186C4.85577 18.2858 6.02281 15.0895 7.96098 12.3703C9.89916 9.6512 12.5358 7.51119 15.5898 6.17844C18.6439 4.8457 22.0008 4.37017 25.3028 4.80257C26.9735 5.00007 28.6076 5.43559 30.156 6.096C30.5196 6.27471 30.9238 6.35387 31.3276 6.32548C31.7315 6.29709 32.1207 6.16216 32.456 5.93432C32.8054 5.70322 33.0853 5.38083 33.2658 5.00184C33.4462 4.62285 33.5203 4.20162 33.4801 3.78348C33.4398 3.36535 33.2868 2.96615 33.0375 2.62885C32.7882 2.29155 32.4519 2.02892 32.065 1.86923C27.6217 -0.0440052 22.6911 -0.502644 17.9735 0.558462C13.2558 1.61957 8.99109 4.14646 5.78506 7.78021C2.57903 11.4139 0.594725 15.9698 0.114009 20.8005C-0.366706 25.6313 0.680615 30.4913 3.1072 34.6903C3.50859 35.3884 4.08493 35.969 4.77896 36.3742C5.47298 36.7794 6.26053 36.9951 7.06331 37H38.9192C39.7298 37.0032 40.5268 36.7913 41.2296 36.3857C41.9324 35.9801 42.516 35.3952 42.9213 34.6903C44.6978 31.5986 45.7366 28.1355 45.9561 24.5728C46.1756 21.0102 45.5698 17.4449 44.1864 14.1569C44.0111 13.7822 43.7388 13.4616 43.3979 13.2288C43.0571 12.996 42.6601 12.8594 42.2487 12.8335C41.8372 12.8075 41.4264 12.893 41.0592 13.0812C40.6919 13.2693 40.3818 13.5531 40.1612 13.9028Z" fill="#DDD8D1"/>
</svg>
