<svg width="46" height="35" viewBox="0 0 46 35" fill="none" xmlns="http://www.w3.org/2000/svg">
<path d="M44.8312 16.345H43.9517V8.45833C43.948 7.45695 43.5518 6.49763 42.8495 5.78954C42.1471 5.08146 41.1955 4.68202 40.2023 4.67833H38.7442V3.79167C38.7442 2.78605 38.3479 1.82163 37.6426 1.11055C36.9373 0.399478 35.9806 0 34.9831 0C33.9857 0 33.029 0.399478 32.3237 1.11055C31.6184 1.82163 31.2221 2.78605 31.2221 3.79167V16.345H14.7663V3.79167C14.7663 2.78605 14.37 1.82163 13.6647 1.11055C12.9594 0.399478 12.0028 0 11.0053 0C10.0078 0 9.05118 0.399478 8.34585 1.11055C7.64052 1.82163 7.24428 2.78605 7.24428 3.79167V4.67833H5.78616C4.79175 4.67833 3.83807 5.07658 3.13491 5.78547C2.43176 6.49436 2.03673 7.45581 2.03673 8.45833V16.345H1.15723C0.850316 16.345 0.555969 16.4679 0.338945 16.6867C0.121922 16.9055 0 17.2022 0 17.5117C0 17.8211 0.121922 18.1178 0.338945 18.3366C0.555969 18.5554 0.850316 18.6783 1.15723 18.6783H2.03673V26.5417C2.03368 27.04 2.12841 27.5341 2.31547 27.9954C2.50253 28.4567 2.77823 28.8761 3.1267 29.2296C3.47517 29.5831 3.88953 29.8636 4.34595 30.055C4.80237 30.2465 5.29183 30.345 5.78616 30.345H7.25585V31.2083C7.25585 32.2139 7.6521 33.1784 8.35742 33.8894C9.06275 34.6005 10.0194 35 11.0169 35C12.0143 35 12.971 34.6005 13.6763 33.8894C14.3816 33.1784 14.7779 32.2139 14.7779 31.2083V18.6783H31.2337V31.2083C31.2337 32.2139 31.63 33.1784 32.3353 33.8894C33.0406 34.6005 33.9972 35 34.9947 35C35.9922 35 36.9488 34.6005 37.6542 33.8894C38.3595 33.1784 38.7557 32.2139 38.7557 31.2083V30.345H40.2138C41.2104 30.3388 42.164 29.9354 42.8665 29.2228C43.569 28.5102 43.9633 27.5463 43.9633 26.5417V18.6783H44.8428C45.1497 18.6783 45.444 18.5554 45.6611 18.3366C45.8781 18.1178 46 17.8211 46 17.5117C46 17.2022 45.8781 16.9055 45.6611 16.6867C45.444 16.4679 45.1497 16.345 44.8428 16.345H44.8312ZM7.25585 28.0117H5.79774C5.60777 28.0101 5.41997 27.9709 5.24504 27.8962C5.07012 27.8215 4.9115 27.7128 4.77825 27.5763C4.645 27.4398 4.53973 27.2782 4.46844 27.1006C4.39715 26.9231 4.36124 26.7332 4.36277 26.5417V8.45833C4.36459 8.07522 4.51636 7.70832 4.78508 7.43742C5.05379 7.16651 5.41772 7.01351 5.79774 7.01167H7.25585V28.0117ZM12.4634 31.2083C12.461 31.5974 12.3066 31.9699 12.0336 32.2451C11.7607 32.5202 11.3913 32.6759 11.0053 32.6783C10.8153 32.6768 10.6275 32.6376 10.4526 32.5629C10.2777 32.4882 10.1191 32.3795 9.9858 32.243C9.85255 32.1065 9.74727 31.9448 9.67599 31.7673C9.6047 31.5898 9.56879 31.3998 9.57031 31.2083V3.79167C9.57214 3.40855 9.72391 3.04166 9.99262 2.77075C10.2613 2.49985 10.6253 2.34684 11.0053 2.345C11.388 2.34495 11.7554 2.49662 12.0282 2.76727C12.301 3.03792 12.4573 3.40586 12.4634 3.79167V31.2083ZM36.4413 31.2083C36.4413 31.5951 36.2889 31.966 36.0176 32.2395C35.7463 32.513 35.3784 32.6667 34.9947 32.6667C34.6111 32.6667 34.2431 32.513 33.9719 32.2395C33.7006 31.966 33.5482 31.5951 33.5482 31.2083V3.79167C33.5482 3.40489 33.7006 3.03396 33.9719 2.76047C34.2431 2.48698 34.6111 2.33333 34.9947 2.33333C35.3784 2.33333 35.7463 2.48698 36.0176 2.76047C36.2889 3.03396 36.4413 3.40489 36.4413 3.79167V31.2083ZM41.6488 26.5417C41.6503 26.7332 41.6144 26.9231 41.5431 27.1006C41.4718 27.2782 41.3666 27.4398 41.2333 27.5763C41.1001 27.7128 40.9415 27.8215 40.7665 27.8962C40.5916 27.9709 40.4038 28.0101 40.2138 28.0117H38.7557V7.01167H40.2138C40.5939 7.01351 40.9578 7.16651 41.2265 7.43742C41.4952 7.70832 41.647 8.07522 41.6488 8.45833V26.5417Z" fill="#DDD8D1"/>
</svg>
