<svg width="28" height="28" viewBox="0 0 28 28" fill="none" xmlns="http://www.w3.org/2000/svg">
<path d="M19.8359 2.33203H8.16927C4.94761 2.33203 2.33594 4.9437 2.33594 8.16536V19.832C2.33594 23.0537 4.94761 25.6654 8.16927 25.6654H19.8359C23.0576 25.6654 25.6693 23.0537 25.6693 19.832V8.16536C25.6693 4.9437 23.0576 2.33203 19.8359 2.33203Z" stroke="#DDD8D1" stroke-width="2" stroke-linecap="round" stroke-linejoin="round"/>
<path d="M18.6188 13.3142C18.7628 14.2851 18.5969 15.2768 18.1449 16.148C17.6928 17.0193 16.9775 17.7258 16.1007 18.1671C15.2239 18.6084 14.2303 18.762 13.2612 18.6061C12.2921 18.4502 11.3969 17.9926 10.7028 17.2985C10.0087 16.6045 9.55115 15.7092 9.39521 14.7401C9.23927 13.771 9.39288 12.7774 9.83418 11.9006C10.2755 11.0238 10.982 10.3085 11.8533 9.85646C12.7245 9.40438 13.7162 9.23853 14.6871 9.38251C15.6775 9.52938 16.5945 9.99089 17.3024 10.6989C18.0104 11.4069 18.4719 12.3238 18.6188 13.3142Z" stroke="#DDD8D1" stroke-width="2" stroke-linecap="round" stroke-linejoin="round"/>
<path d="M20.4141 7.58203H20.4251" stroke="#DDD8D1" stroke-width="2" stroke-linecap="round" stroke-linejoin="round"/>
</svg>
