<svg width="28" height="28" viewBox="0 0 28 28" fill="none" xmlns="http://www.w3.org/2000/svg">
<path d="M18.6641 9.33203C20.5206 9.33203 22.3011 10.0695 23.6138 11.3823C24.9266 12.695 25.6641 14.4755 25.6641 16.332V24.4987H20.9974V16.332C20.9974 15.7132 20.7516 15.1197 20.314 14.6821C19.8764 14.2445 19.2829 13.9987 18.6641 13.9987C18.0452 13.9987 17.4517 14.2445 17.0141 14.6821C16.5766 15.1197 16.3307 15.7132 16.3307 16.332V24.4987H11.6641V16.332C11.6641 14.4755 12.4016 12.695 13.7143 11.3823C15.0271 10.0695 16.8075 9.33203 18.6641 9.33203Z" stroke="#DDD8D1" stroke-width="2" stroke-linecap="round" stroke-linejoin="round"/>
<path d="M7.0026 10.5H2.33594V24.5H7.0026V10.5Z" stroke="#DDD8D1" stroke-width="2" stroke-linecap="round" stroke-linejoin="round"/>
<path d="M4.66927 6.9987C5.95794 6.9987 7.0026 5.95403 7.0026 4.66536C7.0026 3.3767 5.95794 2.33203 4.66927 2.33203C3.38061 2.33203 2.33594 3.3767 2.33594 4.66536C2.33594 5.95403 3.38061 6.9987 4.66927 6.9987Z" stroke="#DDD8D1" stroke-width="2" stroke-linecap="round" stroke-linejoin="round"/>
</svg>
