<svg width="28" height="28" viewBox="0 0 28 28" fill="none" xmlns="http://www.w3.org/2000/svg">
<path d="M26.8307 3.50001C25.7135 4.28807 24.4765 4.89081 23.1674 5.28501C22.4648 4.47711 21.531 3.90449 20.4923 3.64459C19.4536 3.3847 18.3601 3.45007 17.3598 3.83188C16.3595 4.21368 15.5006 4.89348 14.8992 5.77935C14.2978 6.66522 13.983 7.7144 13.9974 8.78501V9.95168C11.9471 10.0048 9.91555 9.55013 8.08357 8.62803C6.2516 7.70594 4.6761 6.34509 3.4974 4.66668C3.4974 4.66668 -1.16927 15.1667 9.33073 19.8333C6.92801 21.4643 4.06575 22.2821 1.16406 22.1667C11.6641 28 24.4974 22.1667 24.4974 8.75001C24.4963 8.42504 24.4651 8.10087 24.4041 7.78168C25.5948 6.60742 26.435 5.12484 26.8307 3.50001Z" stroke="#DDD8D1" stroke-width="2" stroke-linecap="round" stroke-linejoin="round"/>
</svg>
