<svg width="28" height="28" viewBox="0 0 28 28" fill="none" xmlns="http://www.w3.org/2000/svg">
<path d="M26.2947 7.4913C26.1561 6.93761 25.8739 6.4303 25.4765 6.02061C25.0791 5.61092 24.5806 5.31335 24.0314 5.15797C22.0247 4.66797 13.9981 4.66797 13.9981 4.66797C13.9981 4.66797 5.9714 4.66797 3.96473 5.20464C3.41552 5.36002 2.91704 5.65758 2.51963 6.06728C2.12223 6.47697 1.83998 6.98428 1.7014 7.53797C1.33415 9.57445 1.1545 11.6403 1.16473 13.7096C1.15164 15.7945 1.33129 17.8762 1.7014 19.928C1.85418 20.4645 2.14275 20.9525 2.53923 21.3449C2.93571 21.7373 3.42669 22.0208 3.96473 22.168C5.9714 22.7046 13.9981 22.7046 13.9981 22.7046C13.9981 22.7046 22.0247 22.7046 24.0314 22.168C24.5806 22.0126 25.0791 21.715 25.4765 21.3053C25.8739 20.8956 26.1561 20.3883 26.2947 19.8346C26.6591 17.8135 26.8388 15.7634 26.8314 13.7096C26.8445 11.6248 26.6648 9.54312 26.2947 7.4913Z" stroke="#DDD8D1" stroke-width="2" stroke-linecap="round" stroke-linejoin="round"/>
<path d="M11.375 17.5245L18.0833 13.7095L11.375 9.89453V17.5245Z" stroke="#DDD8D1" stroke-width="2" stroke-linecap="round" stroke-linejoin="round"/>
</svg>
