<svg width="78" height="354" viewBox="0 0 78 354" fill="none" xmlns="http://www.w3.org/2000/svg">
<path d="M38.3194 354C17.1933 354 0 336.902 0 315.892V38.1077C0 17.0983 17.1933 0 38.3194 0C59.4455 0 75.1867 12.9867 76.9716 31.5692C77.0624 32.4717 76.9313 35.6814 76.6388 36.4636C76.0943 37.9077 75.1464 38.6096 73.9061 39.2113C67.2102 42.4806 63.0657 45.8802 63.0657 52.6994C63.0657 59.5187 66.2119 63.9211 72.696 66.0271C74.0069 66.4483 75.3985 67.5113 76.0439 68.2935C76.6792 69.0657 76.9716 70.6501 76.9716 71.5326C76.9716 72.4151 76.6388 313.425 76.6388 315.882C76.6388 336.892 59.4455 353.99 38.3194 353.99V354Z" fill="#FBF6EF" fill-opacity="0.18"/>
<path d="M38.5 1C48.17 1 57.26 3.99 64.1 9.43C71.24 15.1 75.47 22.92 76.34 32.03C76.42 32.85 76.3 35.79 76.04 36.48C75.55 37.77 74.74 38.38 73.58 38.95C68 41.69 62.55 45.02 62.55 52.85C62.55 59.94 65.79 64.44 72.45 66.61C73.61 66.99 74.93 67.98 75.54 68.71C76.09 69.38 76.34 70.84 76.34 71.63C76.34 72.53 76.01 313.04 76.01 315.49C76.01 336.17 59.19 352.99 38.51 352.99C17.83 352.99 1 336.18 1 315.5V38.5C1 17.82 17.82 1 38.5 1ZM38.5 0C17.24 0 0 17.24 0 38.5V315.5C0 336.76 17.24 354 38.5 354C59.76 354 77 336.76 77 315.5C77 315.5 77.33 72.54 77.33 71.64C77.33 70.74 77.05 69 76.3 68.09C75.55 67.18 74.07 66.1 72.75 65.67C66.46 63.62 63.54 59.47 63.54 52.86C63.54 46.25 67.9 42.86 74.01 39.86C75.28 39.23 76.36 38.46 76.97 36.85C76.97 35.5 77.41 32.81 77.33 31.95C75.46 12.42 58.51 0 38.5 0Z" fill="#FBF6EF" fill-opacity="0.26"/>
</svg>
