<svg width="78" height="354" viewBox="0 0 78 354" fill="none" xmlns="http://www.w3.org/2000/svg">
<path d="M38.4991 354C17.373 354 0.179688 336.902 0.179688 315.892V38.1077C0.179688 17.0983 17.373 0 38.4991 0C59.6252 0 75.3664 12.9867 77.1513 31.5692C77.2421 32.4717 77.111 106.681 76.8185 107.464C76.274 108.908 75.3261 109.61 74.0857 110.211C67.3899 113.481 63.2454 116.88 63.2454 123.699C63.2454 130.519 66.3916 134.921 72.8756 137.027C74.1866 137.448 75.5782 138.511 76.2236 139.294C76.8589 140.066 77.1513 141.65 77.1513 142.533C77.1513 143.415 76.8185 313.425 76.8185 315.882C76.8185 336.892 59.6252 353.99 38.4991 353.99V354Z" fill="#FBF6EF" fill-opacity="0.18"/>
<path d="M38.5 1C48.17 1 57.26 3.99 64.1 9.43C71.24 15.1 75.47 22.92 76.34 32.03C76.42 32.85 76.3 107.79 76.04 108.48C75.55 109.77 74.74 110.38 73.58 110.95C68 113.69 62.55 117.02 62.55 124.85C62.55 131.94 65.79 136.44 72.45 138.61C73.61 138.99 74.93 139.98 75.54 140.71C76.09 141.38 76.34 142.84 76.34 143.63C76.34 144.53 76.01 313.04 76.01 315.49C76.01 336.17 59.19 352.99 38.51 352.99C17.83 352.99 1 336.18 1 315.5V38.5C1 17.82 17.82 1 38.5 1ZM38.4991 0C17.2391 0 0 17.24 0 38.5V315.5C0 336.76 17.2391 354 38.4991 354C59.7591 354 77 336.76 77 315.5C77 315.5 77.33 144.54 77.33 143.64C77.33 142.74 77.05 141 76.3 140.09C75.55 139.18 74.07 138.1 72.75 137.67C66.46 135.62 63.54 131.47 63.54 124.86C63.54 118.25 67.9 114.86 74.01 111.86C75.28 111.23 76.36 110.46 76.97 108.85C76.97 107.5 77.41 32.81 77.33 31.95C75.46 12.42 58.5091 0 38.4991 0Z" fill="#FBF6EF" fill-opacity="0.26"/>
</svg>
