<svg width="78" height="354" viewBox="0 0 78 354" fill="none" xmlns="http://www.w3.org/2000/svg">
<path d="M38.3194 354C17.1933 354 0 336.902 0 315.892V38.1077C0 17.0983 17.1933 0 38.3194 0C59.4455 0 75.1867 12.9867 76.9716 31.5692C77.0624 32.4717 76.9313 192.681 76.6388 193.464C76.0943 194.908 75.1464 196.61 73.9061 197.211C67.2102 200.481 63.0657 203.88 63.0657 210.699C63.0657 217.519 66.2119 221.921 72.696 224.027C74.0069 224.448 75.3985 225.511 76.0439 226.294C76.6792 227.066 76.9716 228.65 76.9716 229.533C76.9716 230.415 76.6388 313.425 76.6388 315.882C76.6388 336.892 59.4455 353.99 38.3194 353.99V354Z" fill="#FBF6EF" fill-opacity="0.18"/>
<path d="M38.5 1C48.17 1 57.26 3.99 64.1 9.43C71.24 15.1 75.47 22.92 76.34 32.03C76.42 32.85 76.3 193.79 76.04 194.48C75.55 195.77 74.74 196.38 73.58 196.95C68 199.69 62.55 203.02 62.55 210.85C62.55 217.94 65.79 222.44 72.45 224.61C73.61 224.99 74.93 225.98 75.54 226.71C76.09 227.38 76.34 228.84 76.34 229.63C76.34 230.53 76.01 313.04 76.01 315.49C76.01 336.17 59.19 352.99 38.51 352.99C17.83 352.99 1 336.18 1 315.5V38.5C1 17.82 17.82 1 38.5 1ZM38.5 0C17.24 0 0 17.24 0 38.5V315.5C0 336.76 17.24 354 38.5 354C59.76 354 77 336.76 77 315.5C77 315.5 77.33 230.54 77.33 229.64C77.33 228.74 77.05 227 76.3 226.09C75.55 225.18 74.07 224.1 72.75 223.67C66.46 221.62 63.54 217.47 63.54 210.86C63.54 204.25 67.9 200.86 74.01 197.86C75.28 197.23 76.36 196.46 76.97 194.85C76.97 193.5 77.41 32.81 77.33 31.95C75.46 12.42 58.51 0 38.5 0Z" fill="#FBF6EF" fill-opacity="0.26"/>
</svg>
