<svg width="78" height="354" viewBox="0 0 78 354" fill="none" xmlns="http://www.w3.org/2000/svg">
<path d="M38.3194 354C17.1933 354 0 336.902 0 315.892V38.1077C0 17.0983 17.1933 0 38.3194 0C59.4455 0 75.1867 12.9867 76.9716 31.5692C77.0624 32.4717 76.9313 280.681 76.6388 281.464C76.0943 282.908 75.1464 284.61 73.9061 285.211C67.2102 288.481 63.0657 291.88 63.0657 298.699C63.0657 305.519 66.2119 309.921 72.696 312.027C74.0069 312.448 75.3546 313.718 76 314.5C76.6353 315.272 76.9716 317.117 76.9716 318C76.9716 318.883 76.9716 318.543 76.9716 321C76.9716 342.009 59.4455 353.99 38.3194 353.99V354Z" fill="#FBF6EF" fill-opacity="0.18"/>
<path d="M38.5 1C48.17 1 57.26 3.99 64.1 9.43C71.24 15.1 75.47 22.92 76.34 32.03C76.42 32.85 76.3 281.79 76.04 282.48C75.55 283.77 74.74 284.38 73.58 284.95C68 287.69 62.55 291.02 62.55 298.85C62.55 305.94 65.79 310.44 72.45 312.61C73.61 312.99 74.93 313.98 75.54 314.71C76.09 315.38 76.34 316.84 76.34 317.63C76.34 318.53 76.3 317.382 76.3 319.832C76.3 340.512 59.19 352.99 38.51 352.99C17.83 352.99 1 336.18 1 315.5V38.5C1 17.82 17.82 1 38.5 1ZM38.5 0C17.24 0 0 17.24 0 38.5V315.5C0 336.76 17.24 354 38.5 354C59.76 354 77.29 341.102 77.29 319.842C77.29 319.842 77.33 318.54 77.33 317.64C77.33 316.74 77.05 315 76.3 314.09C75.55 313.18 74.07 312.1 72.75 311.67C66.46 309.62 63.54 305.47 63.54 298.86C63.54 292.25 67.9 288.86 74.01 285.86C75.28 285.23 76.36 284.46 76.97 282.85C76.97 281.5 77.41 32.81 77.33 31.95C75.46 12.42 58.51 0 38.5 0Z" fill="#FBF6EF" fill-opacity="0.26"/>
</svg>
