<svg width="95" height="64" viewBox="0 0 95 64" fill="none" xmlns="http://www.w3.org/2000/svg">
<g clip-path="url(#clip0_3059_5490)">
<path d="M94.3825 42.9377V49.4389H87.6328H69.8975V42.9377H94.3825Z" fill="#FBF6EF"/>
<path d="M71.8485 44.8724H94.3825V42.9377H69.8975V49.4389H71.8485V44.8724Z" fill="#FBF6EF"/>
<path d="M69.8917 12.134V36.2441H63.1421V26.3944C63.1421 24.285 62.2632 22.3499 60.8395 20.9378C59.4157 19.5257 57.4647 18.654 55.3378 18.654C51.0842 18.654 47.5336 22.1755 47.5336 26.3944V49.441H31.7493C30.6771 45.5709 27.3198 42.7467 23.2419 42.7467C19.164 42.7467 15.6135 45.5709 14.7346 49.441H1.05957V17.5906C1.05957 8.45564 8.49471 1.06396 17.7227 1.06396H69.8742V12.1515L69.8917 12.134ZM36.7061 27.4578V11.9597H19.1465C15.4201 11.9597 12.3968 14.9582 12.3968 18.6366V27.4404H36.7061V27.4578Z" fill="#FBF6EF"/>
<path d="M3.35925 45.0479V19.7C3.35925 10.565 10.812 3.17338 20.04 3.17338H69.8888V1.06396H17.7198C8.49178 1.06396 1.05664 8.45563 1.05664 17.5906V49.6154H3.35925V45.0479Z" fill="#FBF6EF"/>
<path d="M65.4451 36.2437V28.5034C65.4451 26.394 64.5663 24.4589 63.1425 23.0468C62.791 22.6982 62.4394 22.3495 61.8945 21.9834C62.7734 23.2212 63.1425 24.6158 63.1425 26.2022V36.2263H65.4451V36.2437Z" fill="#FBF6EF"/>
<path d="M54.4706 31.8503C55.7186 31.8503 56.7732 32.9135 56.7732 34.1336C56.7732 35.3536 55.5252 36.2425 54.4706 36.2425C53.4159 36.2425 52.168 35.1793 52.168 34.1336C52.168 33.0878 53.2402 31.8503 54.4706 31.8503Z" fill="#FBF6EF"/>
<path d="M23.4178 49.4412C24.6658 49.4412 25.7205 50.5044 25.7205 51.7244C25.7205 52.9445 24.4725 53.8334 23.4178 53.8334C22.3632 53.8334 21.1152 52.7702 21.1152 51.5501C21.1152 50.3301 22.1874 49.4412 23.4178 49.4412Z" fill="#FBF6EF"/>
<path d="M36.716 28.5029H23.4101C22.8828 28.5029 22.3379 27.9799 22.3379 27.4394C22.3379 26.899 22.8652 26.376 23.4101 26.376H35.6438V13.1791H23.4101C22.8828 13.1791 22.3379 12.6561 22.3379 12.1157C22.3379 11.5752 22.8652 11.0522 23.4101 11.0522H36.716C37.2433 11.0522 37.7882 11.5752 37.7882 12.1157V27.422C37.7882 27.945 37.2609 28.4854 36.716 28.4854V28.5029Z" fill="#FBF6EF"/>
<path d="M23.4163 28.503H12.2372C11.7099 28.503 11.165 27.98 11.165 27.4396V18.8102C11.165 14.417 14.7156 10.8955 19.1451 10.8955H23.3988C23.9261 10.8955 24.471 11.4185 24.471 11.9589V27.4396C24.471 27.9626 23.9436 28.503 23.3988 28.503H23.4163ZM13.3095 26.3936H22.1859V13.1967H18.9869C15.7878 13.1967 13.3095 15.6548 13.3095 18.8276V26.3936Z" fill="#FBF6EF"/>
<path d="M38.8465 37.307H1.24896C0.72165 37.307 0.176758 36.7842 0.176758 36.2439C0.176758 35.7035 0.704073 35.1807 1.24896 35.1807H39.0399C39.5672 35.1807 40.1121 35.7035 40.1121 36.2439C40.1121 36.7842 39.409 37.307 38.8641 37.307H38.8465Z" fill="#FBF6EF"/>
<path d="M63.3204 50.5047C62.7931 50.5047 62.2482 49.9817 62.2482 49.4412V26.3946C62.2482 24.6338 61.5451 23.0474 60.2971 21.6353C59.0491 20.3976 57.2738 19.7002 55.4985 19.7002C51.7722 19.7002 48.7489 22.6987 48.7489 26.3946V49.4412C48.7489 49.9642 48.2216 50.5047 47.6767 50.5047C47.1318 50.5047 46.6045 49.9817 46.6045 49.4412V26.3946C46.6045 21.461 50.5066 17.5908 55.481 17.5908C57.7836 17.5908 60.0862 18.4625 61.6857 20.2232C63.2852 21.8097 64.3399 24.0934 64.3399 26.3771V49.4238C64.3399 49.9468 63.8125 50.4872 63.2676 50.4872L63.3204 50.5047Z" fill="#FBF6EF"/>
<path d="M14.7316 50.5039H1.07416C0.546846 50.5039 0.00195312 49.9809 0.00195312 49.4405V17.5901C0.00195312 7.91466 7.98199 0 17.7373 0H69.8888C70.4161 0 70.961 0.522995 70.961 1.06342V42.9379C70.961 43.4609 70.4337 44.0013 69.8888 44.0013C69.3439 44.0013 68.8166 43.4784 68.8166 42.9379V2.10942H17.7373C9.22997 2.10942 2.12879 8.97809 2.12879 17.5901V48.3771H14.5559C15.0832 48.3771 15.6281 48.9001 15.6281 49.4405C15.6281 49.9809 15.4523 50.5039 14.7492 50.5039H14.7316Z" fill="#FBF6EF"/>
<path d="M69.9012 50.5043H31.9345C31.4072 50.5043 30.8623 49.9814 30.8623 49.4411C30.8623 48.9008 31.3896 48.3779 31.9345 48.3779H69.9012C70.4285 48.3779 70.9734 48.9008 70.9734 49.4411C70.9734 49.9814 70.4461 50.5043 69.9012 50.5043Z" fill="#FBF6EF"/>
<path d="M23.395 61.5911C17.8933 61.5911 13.4639 57.1979 13.4639 51.7414C13.4639 50.8697 13.6396 50.1549 13.8154 49.2833C14.8876 44.8901 18.9655 41.8916 23.395 41.8916C27.8244 41.8916 31.9023 44.8901 32.9745 49.2833C33.1503 50.1549 33.3261 50.8697 33.3261 51.7414C33.3261 57.1979 28.8966 61.5911 23.395 61.5911ZM23.395 43.9836C19.8444 43.9836 16.8387 46.2673 15.9422 49.7888C15.7665 50.4862 15.7665 51.0266 15.7665 51.7239C15.7665 55.9427 19.3171 59.4643 23.5707 59.4643C27.8244 59.4643 31.375 55.9427 31.375 51.7239C31.375 51.0266 31.375 50.4862 31.1992 49.7888C29.9513 46.2673 26.7698 43.9836 23.395 43.9836Z" fill="#FBF6EF"/>
<path d="M5.67841 43.984H1.24897C0.72165 43.984 0.176758 43.4612 0.176758 42.9209C0.176758 42.3805 0.704073 41.8577 1.24897 41.8577H5.67841C6.20573 41.8577 6.75062 42.3805 6.75062 42.9209C6.75062 43.4612 6.22331 43.984 5.67841 43.984Z" fill="#FBF6EF"/>
<path d="M69.9117 37.307H63.1621C62.6347 37.307 62.0898 36.7842 62.0898 36.2439C62.0898 35.7035 62.6172 35.1807 63.1621 35.1807H69.9117C70.439 35.1807 70.9839 35.7035 70.9839 36.2439C70.9839 36.7842 70.4566 37.307 69.9117 37.307Z" fill="#FBF6EF"/>
<path d="M94.3785 50.5036H69.8935C69.3662 50.5036 68.8213 49.9806 68.8213 49.4401V42.7458C68.8213 42.2228 69.3486 41.6824 69.8935 41.6824H94.3785C94.9058 41.6824 95.4507 42.2054 95.4507 42.7458V49.4401C95.4507 49.9631 94.9234 50.5036 94.3785 50.5036ZM70.9481 48.3942H93.1305V44.001H70.9481V48.3942Z" fill="#FBF6EF"/>
<path d="M78.7527 63.7001H3.3642C2.83688 63.7001 2.29199 63.1772 2.29199 62.6369C2.29199 62.0966 2.81931 61.5737 3.3642 61.5737H78.7703C79.2976 61.5737 79.8425 62.0966 79.8425 62.6369C79.8425 63.1772 79.3152 63.7001 78.7703 63.7001H78.7527Z" fill="#FBF6EF"/>
<path d="M87.6406 59.3085C87.1133 59.3085 86.5684 58.7855 86.5684 58.2451V49.4414C86.5684 48.9184 87.0957 48.3779 87.6406 48.3779C88.1855 48.3779 88.7128 48.9009 88.7128 49.4414V58.2451C88.7128 58.7681 88.1855 59.3085 87.6406 59.3085Z" fill="#FBF6EF"/>
<path d="M69.8997 13.1977H58.7206C58.1933 13.1977 57.6484 12.6748 57.6484 12.1345C57.6484 11.5942 58.1758 11.0713 58.7206 11.0713H69.8997C70.427 11.0713 70.9719 11.5942 70.9719 12.1345C70.9719 12.6748 70.4446 13.1977 69.8997 13.1977Z" fill="#FBF6EF"/>
</g>
<defs>
<clipPath id="clip0_3059_5490">
<rect width="95" height="64" fill="white"/>
</clipPath>
</defs>
</svg>
