<svg width="92" height="66" viewBox="0 0 92 66" fill="none" xmlns="http://www.w3.org/2000/svg">
<path d="M28.321 12.9068L30.5665 9.97352C30.8827 9.53352 30.7246 8.94687 30.2502 8.65354C29.7758 8.36021 29.1275 8.50687 28.8112 8.94687L25.9333 12.9068H25.4589L22.5809 8.94687C22.2647 8.50687 21.6163 8.36021 21.1419 8.65354C20.6676 8.94687 20.5094 9.53352 20.8257 9.97352L24.178 14.5201L2.5617 60.4262V41.0665C2.5617 40.6265 2.08731 40.1865 1.59711 40.1865C1.10691 40.1865 0.632519 40.6265 0.632519 41.0665V64.5328L0 65.9995H9.75661L29.4279 24.3467C29.5861 23.9067 30.2344 23.6133 30.7088 23.9067C31.1832 24.0533 31.5153 24.64 31.1832 25.08L11.8281 65.9995H35.6583L61.1013 12.7601H28.3052V12.9068H28.321ZM32.3059 21.12C31.1832 21.12 30.2344 20.2401 30.2344 19.2134C30.2344 18.1867 31.199 17.3068 32.3059 17.3068C33.4128 17.3068 34.3774 18.1867 34.3774 19.2134C34.2193 20.2401 33.4128 21.12 32.3059 21.12Z" fill="#FBF6EF"/>
<path d="M47.7209 66L61.4782 33.587V33.4404L61.6363 16.4272L37.9643 66H47.7209Z" fill="#FBF6EF"/>
<path d="M61.2775 65.9989L61.4515 38.4259L49.7657 65.9989H61.2775Z" fill="#FBF6EF"/>
<path d="M63.3273 65.9986H74.8392L63.4855 39.3056L63.3273 65.9986Z" fill="#FBF6EF"/>
<path d="M63.5378 13.6386L67.2223 8.06534C67.5385 7.62535 67.3804 7.03869 66.906 6.74536C66.4316 6.45203 65.7833 6.5987 65.467 7.03869L62.5891 11.4386L59.0628 7.03869C58.7465 6.5987 58.0982 6.5987 57.6238 6.89203C57.1494 7.18536 57.1494 7.77202 57.4657 8.21201L61.9407 13.7853C62.0989 14.0786 62.4151 14.2253 62.7314 14.2253C63.0476 14.0786 63.3797 13.9319 63.5378 13.6386Z" fill="#DDD8D1"/>
<path d="M84.3057 0C80.4632 0 77.269 2.9333 77.269 6.45325V23.0264C77.269 26.253 79.8307 28.893 83.3411 29.333V57.1993L63.6698 16.2798L63.5117 34.3196L76.9527 65.9992H87.5158L85.2703 61.3059V29.333C88.6227 28.893 91.3425 26.253 91.3425 23.0264V6.45325C91.3425 2.9333 88.1483 0 84.3057 0ZM86.5512 26.9863C86.7093 26.8397 87.0256 26.693 87.1837 26.5463C87.0256 26.8397 86.7093 26.9863 86.5512 26.9863Z" fill="#FBF6EF"/>
</svg>
