<svg width="52" height="82" viewBox="0 0 52 82" fill="none" xmlns="http://www.w3.org/2000/svg">
<g clip-path="url(#clip0_3059_6733)">
<path fill-rule="evenodd" clip-rule="evenodd" d="M35.3063 0.000677217H16.6945C14.6824 0.000677217 13.0161 1.66694 13.0161 3.80479V7.48314H3.00046C1.34342 7.48314 0.000193969 8.82577 0.000297773 10.4828C0.000345815 11.2497 0.000380158 12.1218 0.000380158 13.0478V76.1772C0.000380158 77.1038 0.000448744 77.9764 0.000544661 78.7436C0.000751752 80.4001 1.34373 81.7419 3.00022 81.7419H49.0004C50.6572 81.7419 52.0004 80.3996 52.0004 78.7427C52.0004 77.9757 52.0004 77.1035 52.0004 76.1772C52.0004 73.0962 52.0004 16.0974 52.0004 13.0164C52.0004 12.0972 52.0004 11.2339 52.0004 10.4751C52.0004 8.82104 50.6616 7.47992 49.0076 7.47593L38.9532 7.4517V3.77335C38.9532 1.6355 37.287 -0.0307617 35.2749 -0.0307617L35.3063 0.000677217ZM36.9726 24.1772H24.9L20.0584 41.5944H24.9L15.0596 67.783L36.2495 38.985H29.1443L36.9726 24.1772Z" fill="#FBF6EF"/>
</g>
<defs>
<clipPath id="clip0_3059_6733">
<rect width="52" height="81.7412" fill="white"/>
</clipPath>
</defs>
</svg>
