<svg width="92" height="84" viewBox="0 0 92 84" fill="none" xmlns="http://www.w3.org/2000/svg">
<path d="M52.4736 58.4683V63.3423H47.5146V58.4683H52.4736Z" fill="#FBF6EF" stroke="#FBF6EF"/>
<path d="M52.4736 27.5522V32.4263H47.5146V27.5522H52.4736Z" fill="#FBF6EF" stroke="#FBF6EF"/>
<path d="M62.1875 5.29199V7.22949H29.8105V5.29199H62.1875Z" fill="#FBF6EF" stroke="#FBF6EF"/>
<path d="M52.4736 43.01V47.884H47.5146V43.01H52.4736Z" fill="#FBF6EF" stroke="#FBF6EF"/>
<path d="M52.4736 35.2812V40.1553H47.5146V35.2812H52.4736Z" fill="#FBF6EF" stroke="#FBF6EF"/>
<path d="M52.4736 19.8228V24.6968H47.5146V19.8228H52.4736Z" fill="#FBF6EF" stroke="#FBF6EF"/>
<path d="M44.6387 35.2812V40.1553H39.6797V35.2812H44.6387Z" fill="#FBF6EF" stroke="#FBF6EF"/>
<path d="M44.6387 27.5522V32.4263H39.6797V27.5522H44.6387Z" fill="#FBF6EF" stroke="#FBF6EF"/>
<path d="M44.6387 43.01V47.884H39.6797V43.01H44.6387Z" fill="#FBF6EF" stroke="#FBF6EF"/>
<path d="M44.6387 58.4683V63.3423H39.6797V58.4683H44.6387Z" fill="#FBF6EF" stroke="#FBF6EF"/>
<path d="M44.6387 50.7393V55.6133H39.6797V50.7393H44.6387Z" fill="#FBF6EF" stroke="#FBF6EF"/>
<path d="M60.3115 43.01V47.884H55.3525V43.01H60.3115Z" fill="#FBF6EF" stroke="#FBF6EF"/>
<path d="M52.4736 50.7393V55.6133H47.5146V50.7393H52.4736Z" fill="#FBF6EF" stroke="#FBF6EF"/>
<path d="M60.3115 58.4683V63.3423H55.3525V58.4683H60.3115Z" fill="#FBF6EF" stroke="#FBF6EF"/>
<path d="M60.3115 50.7393V55.6133H55.3525V50.7393H60.3115Z" fill="#FBF6EF" stroke="#FBF6EF"/>
<path d="M60.3115 19.8228V24.6968H55.3525V19.8228H60.3115Z" fill="#FBF6EF" stroke="#FBF6EF"/>
<path d="M60.3115 35.2812V40.1553H55.3525V35.2812H60.3115Z" fill="#FBF6EF" stroke="#FBF6EF"/>
<path d="M68.1621 10.084V26.5518H63.2041V19.8223H63.6504C64.0486 19.8222 64.4051 19.6342 64.6543 19.3887C64.9025 19.1441 65.0965 18.7909 65.0967 18.3955C65.0967 17.9949 64.8941 17.6408 64.6465 17.3994C64.3986 17.1579 64.0432 16.9678 63.6504 16.9678H63.2041V14.5303C63.204 14.1349 63.0099 13.7817 62.7617 13.5371C62.5124 13.2915 62.1552 13.1035 61.7568 13.1035C61.3586 13.1036 61.0022 13.2916 60.7529 13.5371C60.5047 13.7817 60.3106 14.1348 60.3105 14.5303V16.9678H55.3516V14.5303C55.3515 14.1349 55.1583 13.7817 54.9102 13.5371C54.6609 13.2915 54.3036 13.1035 53.9053 13.1035C53.507 13.1036 53.1506 13.2916 52.9014 13.5371C52.6531 13.7817 52.4591 14.1348 52.459 14.5303V16.9678H47.5V14.5303C47.4999 14.1349 47.3068 13.7817 47.0586 13.5371C46.8093 13.2915 46.4521 13.1035 46.0537 13.1035C45.6555 13.1036 45.299 13.2916 45.0498 13.5371C44.8015 13.7817 44.6075 14.1348 44.6074 14.5303V16.9678H39.6484V14.5303C39.6483 14.135 39.4552 13.7817 39.207 13.5371C38.9578 13.2915 38.6005 13.1035 38.2021 13.1035C37.8039 13.1036 37.4475 13.2916 37.1982 13.5371C36.95 13.7817 36.756 14.1348 36.7559 14.5303V16.9678H31.7969V14.5303C31.7968 14.135 31.6036 13.7817 31.3555 13.5371C31.1062 13.2915 30.749 13.1035 30.3506 13.1035C29.9523 13.1036 29.5959 13.2916 29.3467 13.5371C29.0984 13.7817 28.9044 14.1348 28.9043 14.5303V16.9678H28.458C28.0596 16.9678 27.7024 17.1558 27.4531 17.4014C27.2048 17.646 27.0107 18 27.0107 18.3955C27.0109 18.7959 27.2134 19.1494 27.4609 19.3906C27.7089 19.6323 28.065 19.8223 28.458 19.8223H28.9043V24.6963H28.458C28.0597 24.6963 27.7024 24.8844 27.4531 25.1299C27.2048 25.3745 27.0108 25.7285 27.0107 26.124C27.0107 26.5247 27.2133 26.8788 27.4609 27.1201C27.7089 27.3617 28.0651 27.5518 28.458 27.5518H28.9043V32.4258H28.458C28.0596 32.4258 27.7024 32.6138 27.4531 32.8594C27.2048 33.104 27.0107 33.458 27.0107 33.8535C27.0109 34.2539 27.2134 34.6074 27.4609 34.8486C27.7089 35.0903 28.065 35.2803 28.458 35.2803H28.9043V40.1543H28.458C28.0597 40.1543 27.7024 40.3424 27.4531 40.5879C27.2048 40.8325 27.0108 41.1865 27.0107 41.582C27.0107 41.9827 27.2133 42.3368 27.4609 42.5781C27.7089 42.8197 28.0651 43.0098 28.458 43.0098H28.9043V47.8838H28.458C28.0596 47.8838 27.7024 48.0718 27.4531 48.3174C27.2048 48.5621 27.0107 48.916 27.0107 49.3115C27.0109 49.712 27.2134 50.0654 27.4609 50.3066C27.7089 50.5483 28.065 50.7383 28.458 50.7383H28.9043V55.6123H28.458C28.0598 55.6123 27.7024 55.8004 27.4531 56.0459C27.2048 56.2905 27.0108 56.6445 27.0107 57.04C27.0107 57.4407 27.2133 57.7948 27.4609 58.0361C27.7089 58.2778 28.0651 58.4678 28.458 58.4678H28.9043V63.3418H28.458C28.0596 63.3418 27.7024 63.5298 27.4531 63.7754C27.2048 64.0201 27.0107 64.374 27.0107 64.7695C27.0109 65.17 27.2134 65.5234 27.4609 65.7646C27.7089 66.0063 28.065 66.1963 28.458 66.1963H28.9043V68.6338C28.9043 69.0293 29.0984 69.3833 29.3467 69.6279C29.5959 69.8733 29.9525 70.0615 30.3506 70.0615C30.7489 70.0615 31.1062 69.8735 31.3555 69.6279C31.6038 69.3833 31.7968 69.0293 31.7969 68.6338V66.1963H36.7559V68.6338C36.7559 69.0293 36.9499 69.3833 37.1982 69.6279C37.4475 69.8733 37.8041 70.0615 38.2021 70.0615C38.6004 70.0615 38.9578 69.8735 39.207 69.6279C39.4553 69.3833 39.6484 69.0293 39.6484 68.6338V66.1963H44.6074V68.6338C44.6074 69.0293 44.8015 69.3833 45.0498 69.6279C45.299 69.8733 45.6557 70.0615 46.0537 70.0615C46.452 70.0615 46.8093 69.8735 47.0586 69.6279C47.3069 69.3833 47.5 69.0293 47.5 68.6338V66.1963H52.459V68.6338C52.459 69.0293 52.6531 69.3833 52.9014 69.6279C53.1506 69.8733 53.5072 70.0614 53.9053 70.0615C54.3036 70.0615 54.6609 69.8734 54.9102 69.6279C55.1585 69.3833 55.3515 69.0293 55.3516 68.6338V66.1963H60.3105V74.7803H24.0078V10.084H68.1621Z" fill="#FBF6EF" stroke="#FBF6EF"/>
<path d="M60.3115 27.5522V32.4263H55.3525V27.5522H60.3115Z" fill="#FBF6EF" stroke="#FBF6EF"/>
<path d="M44.6387 19.8228V24.6968H39.6797V19.8228H44.6387Z" fill="#FBF6EF" stroke="#FBF6EF"/>
<path d="M82.7178 48.729V49.7388H67.0986V48.729H82.7178Z" fill="#FBF6EF" stroke="#FBF6EF"/>
<path d="M82.7178 56.4583V57.468H67.0986V56.4583H82.7178Z" fill="#FBF6EF" stroke="#FBF6EF"/>
<path d="M82.7178 64.1873V65.197H67.0986V64.1873H82.7178Z" fill="#FBF6EF" stroke="#FBF6EF"/>
<path d="M82.7178 71.916V72.9258H67.0986V71.916H82.7178Z" fill="#FBF6EF" stroke="#FBF6EF"/>
<path d="M36.8037 19.8228V24.6968H31.8447V19.8228H36.8037Z" fill="#FBF6EF" stroke="#FBF6EF"/>
<path d="M36.8037 27.5522V32.4263H31.8447V27.5522H36.8037Z" fill="#FBF6EF" stroke="#FBF6EF"/>
<path d="M36.8037 43.01V47.884H31.8447V43.01H36.8037Z" fill="#FBF6EF" stroke="#FBF6EF"/>
<path d="M36.8037 35.2812V40.1553H31.8447V35.2812H36.8037Z" fill="#FBF6EF" stroke="#FBF6EF"/>
<path d="M36.8037 58.4683V63.3423H31.8447V58.4683H36.8037Z" fill="#FBF6EF" stroke="#FBF6EF"/>
<path d="M82.7178 33.271V34.2808H67.0986V33.271H82.7178Z" fill="#FBF6EF" stroke="#FBF6EF"/>
<path d="M50.583 0.5V2.4375H41.7139V0.5H50.583Z" fill="#FBF6EF" stroke="#FBF6EF"/>
<path d="M36.8037 50.7393V55.6133H31.8447V50.7393H36.8037Z" fill="#FBF6EF" stroke="#FBF6EF"/>
<path d="M82.7178 41.0002V42.01H67.0986V41.0002H82.7178Z" fill="#FBF6EF" stroke="#FBF6EF"/>
<path d="M20.9756 81.6548H24.0078V77.7905H60.1553V81.6548H63.1885V29.4067H86.7988V81.6548H91.2246C91.2759 81.6549 91.3335 81.6769 91.3926 81.7524C91.4561 81.8337 91.5 81.9561 91.5 82.0825C91.5 82.1456 91.4616 82.2554 91.3525 82.3618C91.2438 82.4678 91.1262 82.5102 91.0537 82.5103H0.946289C0.863654 82.5102 0.747188 82.4659 0.643555 82.3638C0.539081 82.2607 0.5 82.1506 0.5 82.0825C0.500028 82.0195 0.538429 81.9096 0.647461 81.8032C0.756239 81.6972 0.873755 81.6549 0.946289 81.6548H6.30371V31.606L20.9756 18.7271V81.6548ZM9.88477 32.4263C9.48639 32.4263 9.12916 32.6143 8.87988 32.8599C8.63165 33.1044 8.43765 33.4577 8.4375 33.853V81.6548H11.3311V33.853C11.3309 33.4577 11.1369 33.1044 10.8887 32.8599C10.6395 32.6144 10.2829 32.4264 9.88477 32.4263ZM13.7949 28.561C13.3966 28.561 13.0393 28.75 12.79 28.9956C12.5418 29.2402 12.3477 29.5934 12.3477 29.9888V81.6548H15.2412V29.9888C15.2411 29.5933 15.0471 29.2402 14.7988 28.9956C14.5496 28.7501 14.1932 28.5611 13.7949 28.561ZM17.7207 25.6245C17.3224 25.6245 16.9651 25.8125 16.7158 26.0581C16.4675 26.3028 16.2734 26.6567 16.2734 27.0522V81.6548H19.167V27.0522C19.167 26.6567 18.9729 26.3028 18.7246 26.0581C18.4754 25.8127 18.1188 25.6246 17.7207 25.6245ZM65.668 69.062C65.2696 69.062 64.9124 69.25 64.6631 69.4956C64.4149 69.7402 64.2218 70.0934 64.2217 70.4888V74.354C64.2218 74.7544 64.4234 75.1079 64.6709 75.3491C64.9189 75.5908 65.275 75.7808 65.668 75.7808H84.3193C84.7176 75.7807 85.074 75.5927 85.3232 75.3472C85.5715 75.1026 85.7655 74.7494 85.7656 74.354V70.4888C85.7655 70.0882 85.563 69.735 85.3154 69.4937C85.0675 69.2521 84.7122 69.0621 84.3193 69.062H65.668ZM65.668 61.3325C65.2696 61.3325 64.9124 61.5205 64.6631 61.7661C64.4148 62.0108 64.2217 62.3647 64.2217 62.7603V66.6245C64.2217 67.0252 64.4232 67.3792 64.6709 67.6206C64.9189 67.8622 65.2751 68.0522 65.668 68.0522H84.3193C84.7174 68.0522 85.074 67.864 85.3232 67.6187C85.5716 67.374 85.7656 67.0201 85.7656 66.6245V62.7603C85.7656 62.3596 85.5631 62.0055 85.3154 61.7642C85.0675 61.5227 84.7121 61.3326 84.3193 61.3325H65.668ZM65.668 53.604C65.2696 53.604 64.9124 53.792 64.6631 54.0376C64.4149 54.2822 64.2218 54.6354 64.2217 55.0308V58.896C64.2218 59.2964 64.4234 59.6499 64.6709 59.8911C64.9189 60.1328 65.275 60.3228 65.668 60.3228H84.3193C84.7175 60.3227 85.074 60.1347 85.3232 59.8892C85.5715 59.6446 85.7655 59.2914 85.7656 58.896V55.0308C85.7655 54.6302 85.563 54.2769 85.3154 54.0356C85.0675 53.794 84.7122 53.6041 84.3193 53.604H65.668ZM65.668 45.8745C65.2696 45.8745 64.9124 46.0625 64.6631 46.3081C64.4148 46.5528 64.2217 46.9067 64.2217 47.3022V51.1665C64.2217 51.5671 64.4232 51.9212 64.6709 52.1626C64.9189 52.4042 65.2751 52.5942 65.668 52.5942H84.3193C84.7174 52.5942 85.074 52.406 85.3232 52.1606C85.5716 51.916 85.7656 51.5621 85.7656 51.1665V47.3022C85.7656 46.9016 85.5631 46.5475 85.3154 46.3062C85.0675 46.0647 84.7121 45.8746 84.3193 45.8745H65.668ZM65.668 38.145C65.2696 38.145 64.9124 38.334 64.6631 38.5796C64.4149 38.8242 64.2218 39.1774 64.2217 39.5728V43.437C64.2217 43.8376 64.4233 44.1917 64.6709 44.4331C64.9189 44.6748 65.275 44.8647 65.668 44.8647H84.3193C84.7175 44.8647 85.074 44.6766 85.3232 44.4312C85.5716 44.1865 85.7656 43.8326 85.7656 43.437V39.5728C85.7655 39.1722 85.563 38.8189 85.3154 38.5776C85.0675 38.336 84.7122 38.1451 84.3193 38.145H65.668ZM65.668 30.4165C65.2696 30.4165 64.9124 30.6045 64.6631 30.8501C64.4148 31.0948 64.2217 31.4487 64.2217 31.8442V35.7085C64.2217 36.1091 64.4232 36.4632 64.6709 36.7046C64.9189 36.9462 65.2751 37.1362 65.668 37.1362H84.3193C84.7174 37.1362 85.074 36.948 85.3232 36.7026C85.5716 36.458 85.7656 36.104 85.7656 35.7085V31.8442C85.7656 31.4436 85.5631 31.0895 85.3154 30.8481C85.0675 30.6066 84.7121 30.4166 84.3193 30.4165H65.668Z" fill="#FBF6EF" stroke="#FBF6EF"/>
</svg>
