<svg width="92" height="84" viewBox="0 0 92 84" fill="none" xmlns="http://www.w3.org/2000/svg">
<path d="M52.4736 58.4683V63.3423H47.5146V58.4683H52.4736Z" fill="#999999" stroke="#999999"/>
<path d="M52.4736 27.5522V32.4263H47.5146V27.5522H52.4736Z" fill="#999999" stroke="#999999"/>
<path d="M62.1875 5.29199V7.22949H29.8105V5.29199H62.1875Z" fill="#999999" stroke="#999999"/>
<path d="M52.4736 43.01V47.884H47.5146V43.01H52.4736Z" fill="#999999" stroke="#999999"/>
<path d="M52.4736 35.281V40.155H47.5146V35.281H52.4736Z" fill="#999999" stroke="#999999"/>
<path d="M52.4736 19.8228V24.6968H47.5146V19.8228H52.4736Z" fill="#999999" stroke="#999999"/>
<path d="M44.6387 35.281V40.155H39.6797V35.281H44.6387Z" fill="#999999" stroke="#999999"/>
<path d="M44.6387 27.5522V32.4263H39.6797V27.5522H44.6387Z" fill="#999999" stroke="#999999"/>
<path d="M44.6387 43.01V47.884H39.6797V43.01H44.6387Z" fill="#999999" stroke="#999999"/>
<path d="M44.6387 58.4683V63.3423H39.6797V58.4683H44.6387Z" fill="#999999" stroke="#999999"/>
<path d="M44.6387 50.7393V55.6133H39.6797V50.7393H44.6387Z" fill="#999999" stroke="#999999"/>
<path d="M60.3115 43.01V47.884H55.3525V43.01H60.3115Z" fill="#999999" stroke="#999999"/>
<path d="M52.4736 50.7393V55.6133H47.5146V50.7393H52.4736Z" fill="#999999" stroke="#999999"/>
<path d="M60.3115 58.4683V63.3423H55.3525V58.4683H60.3115Z" fill="#999999" stroke="#999999"/>
<path d="M60.3115 50.7393V55.6133H55.3525V50.7393H60.3115Z" fill="#999999" stroke="#999999"/>
<path d="M60.3115 19.8228V24.6968H55.3525V19.8228H60.3115Z" fill="#999999" stroke="#999999"/>
<path d="M60.3115 35.281V40.155H55.3525V35.281H60.3115Z" fill="#999999" stroke="#999999"/>
<path d="M68.1621 10.084V26.5518H63.2041V19.8223H63.6504C64.0486 19.8222 64.4051 19.6342 64.6543 19.3887C64.9025 19.1441 65.0965 18.7909 65.0967 18.3955C65.0967 17.9949 64.8941 17.6408 64.6465 17.3994C64.3986 17.1579 64.0432 16.9678 63.6504 16.9678H63.2041V14.5303C63.204 14.1349 63.0099 13.7817 62.7617 13.5371C62.5124 13.2915 62.1552 13.1035 61.7568 13.1035C61.3586 13.1036 61.0022 13.2916 60.7529 13.5371C60.5047 13.7817 60.3106 14.1348 60.3105 14.5303V16.9678H55.3516V14.5303C55.3515 14.1349 55.1583 13.7817 54.9102 13.5371C54.6609 13.2915 54.3036 13.1035 53.9053 13.1035C53.507 13.1036 53.1506 13.2916 52.9014 13.5371C52.6531 13.7817 52.4591 14.1348 52.459 14.5303V16.9678H47.5V14.5303C47.4999 14.1349 47.3068 13.7817 47.0586 13.5371C46.8093 13.2915 46.4521 13.1035 46.0537 13.1035C45.6555 13.1036 45.299 13.2916 45.0498 13.5371C44.8015 13.7817 44.6075 14.1348 44.6074 14.5303V16.9678H39.6484V14.5303C39.6483 14.135 39.4552 13.7817 39.207 13.5371C38.9578 13.2915 38.6005 13.1035 38.2021 13.1035C37.8039 13.1036 37.4475 13.2916 37.1982 13.5371C36.95 13.7817 36.756 14.1348 36.7559 14.5303V16.9678H31.7969V14.5303C31.7968 14.135 31.6036 13.7817 31.3555 13.5371C31.1062 13.2915 30.749 13.1035 30.3506 13.1035C29.9523 13.1036 29.5959 13.2916 29.3467 13.5371C29.0984 13.7817 28.9044 14.1348 28.9043 14.5303V16.9678H28.458C28.0596 16.9678 27.7024 17.1558 27.4531 17.4014C27.2048 17.646 27.0107 18 27.0107 18.3955C27.0109 18.7959 27.2134 19.1494 27.4609 19.3906C27.7089 19.6323 28.065 19.8223 28.458 19.8223H28.9043V24.6963H28.458C28.0597 24.6963 27.7024 24.8844 27.4531 25.1299C27.2048 25.3745 27.0108 25.7285 27.0107 26.124C27.0107 26.5247 27.2133 26.8788 27.4609 27.1201C27.7089 27.3617 28.0651 27.5518 28.458 27.5518H28.9043V32.4258H28.458C28.0596 32.4258 27.7024 32.6138 27.4531 32.8594C27.2048 33.104 27.0107 33.458 27.0107 33.8535C27.0109 34.2539 27.2134 34.6074 27.4609 34.8486C27.7089 35.0903 28.065 35.2803 28.458 35.2803H28.9043V40.1543H28.458C28.0597 40.1543 27.7024 40.3424 27.4531 40.5879C27.2048 40.8325 27.0108 41.1865 27.0107 41.582C27.0107 41.9827 27.2133 42.3368 27.4609 42.5781C27.7089 42.8197 28.0651 43.0098 28.458 43.0098H28.9043V47.8838H28.458C28.0596 47.8838 27.7024 48.0718 27.4531 48.3174C27.2048 48.5621 27.0107 48.916 27.0107 49.3115C27.0109 49.712 27.2134 50.0654 27.4609 50.3066C27.7089 50.5483 28.065 50.7383 28.458 50.7383H28.9043V55.6123H28.458C28.0598 55.6123 27.7024 55.8004 27.4531 56.0459C27.2048 56.2905 27.0108 56.6445 27.0107 57.04C27.0107 57.4407 27.2133 57.7948 27.4609 58.0361C27.7089 58.2778 28.0651 58.4678 28.458 58.4678H28.9043V63.3418H28.458C28.0596 63.3418 27.7024 63.5298 27.4531 63.7754C27.2048 64.0201 27.0107 64.374 27.0107 64.7695C27.0109 65.17 27.2134 65.5234 27.4609 65.7646C27.7089 66.0063 28.065 66.1963 28.458 66.1963H28.9043V68.6338C28.9043 69.0293 29.0984 69.3833 29.3467 69.6279C29.5959 69.8733 29.9525 70.0615 30.3506 70.0615C30.7489 70.0615 31.1062 69.8735 31.3555 69.6279C31.6038 69.3833 31.7968 69.0293 31.7969 68.6338V66.1963H36.7559V68.6338C36.7559 69.0293 36.9499 69.3833 37.1982 69.6279C37.4475 69.8733 37.8041 70.0615 38.2021 70.0615C38.6004 70.0615 38.9578 69.8735 39.207 69.6279C39.4553 69.3833 39.6484 69.0293 39.6484 68.6338V66.1963H44.6074V68.6338C44.6074 69.0293 44.8015 69.3833 45.0498 69.6279C45.299 69.8733 45.6557 70.0615 46.0537 70.0615C46.452 70.0615 46.8093 69.8735 47.0586 69.6279C47.3069 69.3833 47.5 69.0293 47.5 68.6338V66.1963H52.459V68.6338C52.459 69.0293 52.6531 69.3833 52.9014 69.6279C53.1506 69.8733 53.5072 70.0614 53.9053 70.0615C54.3036 70.0615 54.6609 69.8734 54.9102 69.6279C55.1585 69.3833 55.3515 69.0293 55.3516 68.6338V66.1963H60.3105V74.7803H24.0078V10.084H68.1621Z" fill="#999999" stroke="#999999"/>
<path d="M60.3115 27.5522V32.4263H55.3525V27.5522H60.3115Z" fill="#999999" stroke="#999999"/>
<path d="M44.6387 19.8228V24.6968H39.6797V19.8228H44.6387Z" fill="#999999" stroke="#999999"/>
<path d="M82.7178 48.729V49.7388H67.0986V48.729H82.7178Z" fill="#999999" stroke="#999999"/>
<path d="M82.7178 56.4583V57.468H67.0986V56.4583H82.7178Z" fill="#999999" stroke="#999999"/>
<path d="M82.7178 64.1873V65.197H67.0986V64.1873H82.7178Z" fill="#999999" stroke="#999999"/>
<path d="M82.7178 71.916V72.9258H67.0986V71.916H82.7178Z" fill="#999999" stroke="#999999"/>
<path d="M36.8037 19.8228V24.6968H31.8447V19.8228H36.8037Z" fill="#999999" stroke="#999999"/>
<path d="M36.8037 27.5522V32.4263H31.8447V27.5522H36.8037Z" fill="#999999" stroke="#999999"/>
<path d="M36.8037 43.01V47.884H31.8447V43.01H36.8037Z" fill="#999999" stroke="#999999"/>
<path d="M36.8037 35.281V40.155H31.8447V35.281H36.8037Z" fill="#999999" stroke="#999999"/>
<path d="M36.8037 58.4683V63.3423H31.8447V58.4683H36.8037Z" fill="#999999" stroke="#999999"/>
<path d="M82.7178 33.271V34.2808H67.0986V33.271H82.7178Z" fill="#999999" stroke="#999999"/>
<path d="M50.583 0.5V2.4375H41.7139V0.5H50.583Z" fill="#999999" stroke="#999999"/>
<path d="M36.8037 50.7393V55.6133H31.8447V50.7393H36.8037Z" fill="#999999" stroke="#999999"/>
<path d="M82.7178 41.0002V42.01H67.0986V41.0002H82.7178Z" fill="#999999" stroke="#999999"/>
<path d="M20.9756 81.6545H24.0078V77.7903H60.1553V81.6545H63.1885V29.4065H86.7988V81.6545H91.2246C91.2759 81.6547 91.3335 81.6766 91.3926 81.7522C91.4561 81.8335 91.5 81.9558 91.5 82.0823C91.5 82.1453 91.4616 82.2552 91.3525 82.3616C91.2438 82.4676 91.1262 82.5099 91.0537 82.51H0.946289C0.863653 82.5099 0.747188 82.4656 0.643555 82.3635C0.539082 82.2605 0.5 82.1504 0.5 82.0823C0.500027 82.0192 0.538428 81.9093 0.647461 81.803C0.756239 81.697 0.873755 81.6546 0.946289 81.6545H6.30371V31.6057L20.9756 18.7268V81.6545ZM9.88477 32.426C9.48639 32.426 9.12916 32.614 8.87988 32.8596C8.63165 33.1042 8.43765 33.4574 8.4375 33.8528V81.6545H11.3311V33.8528C11.3309 33.4574 11.1369 33.1042 10.8887 32.8596C10.6395 32.6141 10.2829 32.4262 9.88477 32.426ZM13.7949 28.5608C13.3966 28.5608 13.0393 28.7498 12.79 28.9954C12.5418 29.24 12.3477 29.5932 12.3477 29.9885V81.6545H15.2412V29.9885C15.2411 29.5931 15.0471 29.24 14.7988 28.9954C14.5496 28.7498 14.1932 28.5609 13.7949 28.5608ZM17.7207 25.6243C17.3224 25.6243 16.9651 25.8123 16.7158 26.0579C16.4675 26.3025 16.2734 26.6564 16.2734 27.052V81.6545H19.167V27.052C19.167 26.6564 18.9729 26.3025 18.7246 26.0579C18.4754 25.8124 18.1188 25.6244 17.7207 25.6243ZM65.668 69.0618C65.2696 69.0618 64.9124 69.2498 64.6631 69.4954C64.4149 69.74 64.2218 70.0932 64.2217 70.4885V74.3538C64.2218 74.7542 64.4234 75.1076 64.6709 75.3489C64.9189 75.5906 65.275 75.7805 65.668 75.7805H84.3193C84.7176 75.7804 85.074 75.5924 85.3232 75.3469C85.5715 75.1023 85.7655 74.7491 85.7656 74.3538V70.4885C85.7655 70.088 85.563 69.7347 85.3154 69.4934C85.0675 69.2518 84.7122 69.0618 84.3193 69.0618H65.668ZM65.668 61.3323C65.2696 61.3323 64.9124 61.5203 64.6631 61.7659C64.4148 62.0105 64.2217 62.3644 64.2217 62.76V66.6243C64.2217 67.0249 64.4232 67.379 64.6709 67.6204C64.9189 67.862 65.2751 68.052 65.668 68.052H84.3193C84.7174 68.0519 85.074 67.8638 85.3232 67.6184C85.5716 67.3737 85.7656 67.0198 85.7656 66.6243V62.76C85.7656 62.3594 85.5631 62.0053 85.3154 61.7639C85.0675 61.5224 84.7121 61.3323 84.3193 61.3323H65.668ZM65.668 53.6038C65.2696 53.6038 64.9124 53.7918 64.6631 54.0374C64.4149 54.282 64.2218 54.6352 64.2217 55.0305V58.8958C64.2218 59.2962 64.4234 59.6496 64.6709 59.8909C64.9189 60.1325 65.275 60.3225 65.668 60.3225H84.3193C84.7175 60.3224 85.074 60.1344 85.3232 59.8889C85.5715 59.6443 85.7655 59.2911 85.7656 58.8958V55.0305C85.7655 54.63 85.563 54.2767 85.3154 54.0354C85.0675 53.7938 84.7122 53.6038 84.3193 53.6038H65.668ZM65.668 45.8743C65.2696 45.8743 64.9124 46.0623 64.6631 46.3079C64.4148 46.5525 64.2217 46.9064 64.2217 47.302V51.1663C64.2217 51.5669 64.4232 51.921 64.6709 52.1624C64.9189 52.404 65.2751 52.594 65.668 52.594H84.3193C84.7174 52.5939 85.074 52.4058 85.3232 52.1604C85.5716 51.9157 85.7656 51.5618 85.7656 51.1663V47.302C85.7656 46.9014 85.5631 46.5473 85.3154 46.3059C85.0675 46.0644 84.7121 45.8743 84.3193 45.8743H65.668ZM65.668 38.1448C65.2696 38.1448 64.9124 38.3337 64.6631 38.5793C64.4149 38.824 64.2218 39.1772 64.2217 39.5725V43.4368C64.2217 43.8374 64.4233 44.1915 64.6709 44.4329C64.9189 44.6745 65.275 44.8645 65.668 44.8645H84.3193C84.7175 44.8644 85.074 44.6764 85.3232 44.4309C85.5716 44.1862 85.7656 43.8323 85.7656 43.4368V39.5725C85.7655 39.172 85.563 38.8187 85.3154 38.5774C85.0675 38.3358 84.7122 38.1448 84.3193 38.1448H65.668ZM65.668 30.4163C65.2696 30.4163 64.9124 30.6043 64.6631 30.8499C64.4148 31.0945 64.2217 31.4484 64.2217 31.844V35.7083C64.2217 36.1089 64.4232 36.463 64.6709 36.7043C64.9189 36.9459 65.2751 37.136 65.668 37.136H84.3193C84.7174 37.1359 85.074 36.9478 85.3232 36.7024C85.5716 36.4577 85.7656 36.1038 85.7656 35.7083V31.844C85.7656 31.4434 85.5631 31.0893 85.3154 30.8479C85.0675 30.6064 84.7121 30.4163 84.3193 30.4163H65.668Z" fill="#999999" stroke="#999999"/>
</svg>
