<svg width="52" height="82" viewBox="0 0 52 82" fill="none" xmlns="http://www.w3.org/2000/svg">
<g clip-path="url(#clip0_3258_5937)">
<path fill-rule="evenodd" clip-rule="evenodd" d="M35.3063 0.000433076H16.6945C14.6824 0.000433076 13.0161 1.6667 13.0161 3.80454V7.4829H3.00046C1.34342 7.4829 0.000193969 8.82552 0.000297773 10.4826C0.000345815 11.2495 0.000380158 12.1215 0.000380158 13.0476V76.177C0.000380158 77.1036 0.000448744 77.9761 0.000544661 78.7434C0.000751752 80.3999 1.34373 81.7417 3.00022 81.7417H49.0004C50.6572 81.7417 52.0004 80.3993 52.0004 78.7425C52.0004 77.9755 52.0004 77.1032 52.0004 76.177C52.0004 73.096 52.0004 16.0972 52.0004 13.0162C52.0004 12.0969 52.0004 11.2337 52.0004 10.4748C52.0004 8.8208 50.6616 7.47967 49.0076 7.47569L38.9532 7.45146V3.77311C38.9532 1.63526 37.287 -0.0310059 35.2749 -0.0310059L35.3063 0.000433076ZM36.9726 24.177H24.9L20.0584 41.5941H24.9L15.0596 67.7828L36.2495 38.9847H29.1443L36.9726 24.177Z" fill="#999999"/>
</g>
<defs>
<clipPath id="clip0_3258_5937">
<rect width="52" height="81.7412" fill="white"/>
</clipPath>
</defs>
</svg>
