<svg width="24" height="24" viewBox="0 0 24 24" fill="none" xmlns="http://www.w3.org/2000/svg">
<path d="M5.14289 11.9999V7.49133C5.15628 6.60509 5.34441 5.73021 5.6965 4.91681C6.04859 4.10342 6.55772 3.36748 7.19472 2.75119C7.83172 2.13489 8.58406 1.65035 9.40864 1.32532C10.2332 1.00028 11.1138 0.841151 12 0.85704C12.8862 0.841151 13.7668 1.00028 14.5914 1.32532C15.416 1.65035 16.1684 2.13489 16.8054 2.75119C17.4423 3.36748 17.9515 4.10342 18.3036 4.91681C18.6557 5.73021 18.8438 6.60509 18.8572 7.49133V11.9999M15.4286 20.9999C16.3379 20.9999 17.21 20.6387 17.853 19.9957C18.496 19.3527 18.8572 18.4806 18.8572 17.5713V13.7142M15.4286 20.9999C15.4286 21.5682 15.2028 22.1133 14.801 22.5151C14.3991 22.917 13.8541 23.1428 13.2857 23.1428H10.7143C10.146 23.1428 9.60096 22.917 9.19909 22.5151C8.79723 22.1133 8.57146 21.5682 8.57146 20.9999C8.57146 20.4316 8.79723 19.8865 9.19909 19.4847C9.60096 19.0828 10.146 18.857 10.7143 18.857H13.2857C13.8541 18.857 14.3991 19.0828 14.801 19.4847C15.2028 19.8865 15.4286 20.4316 15.4286 20.9999ZM2.57146 9.42847H4.28575C4.51308 9.42847 4.73109 9.51877 4.89184 9.67952C5.05259 9.84027 5.14289 10.0583 5.14289 10.2856V15.4285C5.14289 15.6558 5.05259 15.8738 4.89184 16.0346C4.73109 16.1953 4.51308 16.2856 4.28575 16.2856H2.57146C2.11681 16.2856 1.68077 16.105 1.35928 15.7835C1.03779 15.462 0.857178 15.026 0.857178 14.5713V11.1428C0.857178 10.6881 1.03779 10.2521 1.35928 9.93057C1.68077 9.60908 2.11681 9.42847 2.57146 9.42847ZM21.4286 16.2856H19.7143C19.487 16.2856 19.269 16.1953 19.1082 16.0346C18.9475 15.8738 18.8572 15.6558 18.8572 15.4285V10.2856C18.8572 10.0583 18.9475 9.84027 19.1082 9.67952C19.269 9.51877 19.487 9.42847 19.7143 9.42847H21.4286C21.8833 9.42847 22.3193 9.60908 22.6408 9.93057C22.9623 10.2521 23.1429 10.6881 23.1429 11.1428V14.5713C23.1429 15.026 22.9623 15.462 22.6408 15.7835C22.3193 16.105 21.8833 16.2856 21.4286 16.2856Z" stroke="#DDD8D1" stroke-width="2" stroke-linecap="round" stroke-linejoin="round"/>
</svg>
