<svg width="208" height="65" viewBox="0 0 208 65" fill="none" xmlns="http://www.w3.org/2000/svg">
<g clip-path="url(#clip0_3914_6927)">
<path d="M25.8922 0.0240176C23.4718 0.0240176 11.4826 -0.0135099 4.7094 0.00525386C2.12019 0.00525386 0.0187988 2.1068 0.0187988 4.6962V15.5792V35.2249V50.7801L25.8922 27.588V13.806V0.0240176Z" fill="#DDD8D1"/>
<path d="M78.0141 0.015625L9.081 64.5819H6.00397C2.70179 64.5819 0 61.8986 0 58.5774V56.1194L59.9084 0.015625H78.0141Z" fill="#DDD8D1"/>
<path d="M86.8887 61.0376L76.7758 49.5917L74.4868 46.9835L63.8485 34.9184C63.8485 34.9184 63.0605 33.8864 61.6345 32.7418C60.6776 31.9725 59.4581 31.1281 57.9946 30.5465C57.3567 30.2838 56.6812 30.0586 55.9683 29.9085C54.8238 29.6646 53.5854 29.5895 52.2721 29.7771C50.5084 30.0211 48.8948 30.9217 47.6002 32.1414L12.9648 64.584H27.6558L43.6601 49.5917L48.5571 55.1458L56.8876 64.584H85.2939C87.1326 64.584 88.1083 62.4261 86.8887 61.0376Z" fill="#DDD8D1"/>
<path d="M97.0188 0.289062H114.015C116.225 0.289062 118.019 1.99597 118.019 4.09816V64.2891H103.572C99.9648 64.2891 97.0377 61.5041 97.0377 58.0723V0.289062H97.0188Z" fill="#DDD8D1"/>
<path d="M187.308 14.2758L186.521 12.4568L181.225 0.289062H158.559C155.265 0.289062 152.308 2.16103 151.054 5.02195L148.134 11.6445L125.019 64.2537H140.516L143.38 64.2714C145.083 64.2714 146.618 63.3001 147.273 61.8167L166.963 16.9955L186.559 62.2228L187.457 64.2891H188.262L205.912 64.2537H208.85C208.85 64.2537 208.963 64.2537 209.019 64.2361L187.308 14.2758Z" fill="#DDD8D1"/>
</g>
<defs>
<clipPath id="clip0_3914_6927">
<rect width="208" height="64.584" fill="white"/>
</clipPath>
</defs>
</svg>
